<svg id="Capa_1" data-name="Capa 1" xmlns="http://www.w3.org/2000/svg" viewBox="0 0 510.24 425.2"><defs><style>.cls-1{fill:#1d1d1b;}</style></defs><path class="cls-1" d="M265.57,332.89h-7.29l-2.9,8h7.07a6.7,6.7,0,0,0,3.47-.94,5.84,5.84,0,0,0,2.42-3.18q.71-2-.12-2.91A3.4,3.4,0,0,0,265.57,332.89Z"/><path class="cls-1" d="M231.3,333.16a5.33,5.33,0,0,0-1.8-.27h-6L220.55,341h6a7.59,7.59,0,0,0,2-.25,5.19,5.19,0,0,0,1.67-.76,6.05,6.05,0,0,0,1.3-1.23,5.71,5.71,0,0,0,.88-1.61,4.81,4.81,0,0,0,.35-1.79,2.55,2.55,0,0,0-.37-1.32A2,2,0,0,0,231.3,333.16Z"/><path class="cls-1" d="M140.77,321.62a8.7,8.7,0,0,0-7.94,5.65l-13.91,34.31H369.47a8.68,8.68,0,0,0,7.93-5.66l13.92-34.3Zm61.6,5.1h10.8l-14,12.17-3-6.34Zm-39.14,23.67L161,356.57H135.5l10.85-29.85h25.49l-2.25,6.17H154.08L152,338.53h13.38l-2.25,6.18H149.73l-2.06,5.68Zm13.65,6.17H166.19l14-11.95L183,350.8Zm13.48,0L176.5,326.72h12.38l13.87,29.85Zm35.18-9.45H218.3l-3.43,9.45H205l10.85-29.85H233q6.48,0,9.36,2.37t1,7.47a14.48,14.48,0,0,1-6.59,7.81A22,22,0,0,1,225.54,347.12Zm47.5-3.78a14.63,14.63,0,0,1-4.32,1.69l5.13,11.54H261.13l-3.2-9.89h-4.66l-3.6,9.89h-9.92l10.85-29.85H269q6.36,0,9.17,2.37t1,7.25a12.5,12.5,0,0,1-2.26,3.71A15.56,15.56,0,0,1,273,343.34Zm32,7.05-2.25,6.18H277.35l10.86-29.85h25.48l-2.24,6.17H295.94l-2.05,5.64h13.37L305,344.71H291.59l-2.07,5.68Zm33.17-3.09a12.78,12.78,0,0,1-3.5,5.11,17.76,17.76,0,0,1-5.9,3.51,21.75,21.75,0,0,1-7.57,1.27c-1.82,0-3.5-.06-5-.17a28.86,28.86,0,0,1-4.14-.61,16.87,16.87,0,0,1-3.39-1.14l2.76-7.61a13.52,13.52,0,0,0,5,2.57,20.23,20.23,0,0,0,5.57.83,9.31,9.31,0,0,0,3.57-.62,3.58,3.58,0,0,0,2-2.15,1.31,1.31,0,0,0-.62-1.68,10.52,10.52,0,0,0-2.87-1.16c-1.24-.35-2.64-.76-4.18-1.24a16.68,16.68,0,0,1-2.6-1.07,6.56,6.56,0,0,1-2-1.57,4.48,4.48,0,0,1-1-2.32,7,7,0,0,1,.51-3.36,11.89,11.89,0,0,1,2.27-3.76A16,16,0,0,1,321,329a20.52,20.52,0,0,1,5.4-2.17,27.7,27.7,0,0,1,6.81-.78,36.05,36.05,0,0,1,4,.2,18.16,18.16,0,0,1,3.19.65,20.29,20.29,0,0,1,2.85,1.12l-2.8,7.7a10.86,10.86,0,0,0-2.23-1.61,17.37,17.37,0,0,0-2.9-1.3,11.85,11.85,0,0,0-3.28-.63,14,14,0,0,0-2.84.2,6.91,6.91,0,0,0-2.4.88,3.24,3.24,0,0,0-1.42,1.7,1.53,1.53,0,0,0,.27,1.76,4.91,4.91,0,0,0,2.13,1.08q1.45.42,3.27.87a28.75,28.75,0,0,1,3.76,1.21,8.18,8.18,0,0,1,2.65,1.66,4.27,4.27,0,0,1,1.27,2.39A6.69,6.69,0,0,1,338.26,347.3Zm33.5-11.63a11.23,11.23,0,0,0-2.24-1.61,17,17,0,0,0-2.9-1.3,11.85,11.85,0,0,0-3.28-.63,14,14,0,0,0-2.84.2,6.91,6.91,0,0,0-2.4.88,3.22,3.22,0,0,0-1.41,1.7,1.53,1.53,0,0,0,.26,1.76,4.91,4.91,0,0,0,2.13,1.08q1.46.42,3.27.87a28.75,28.75,0,0,1,3.76,1.21,8.34,8.34,0,0,1,2.66,1.66,4.32,4.32,0,0,1,1.26,2.39,6.78,6.78,0,0,1-.47,3.42,12.88,12.88,0,0,1-3.5,5.11,17.9,17.9,0,0,1-5.91,3.51,21.65,21.65,0,0,1-7.56,1.27c-1.83,0-3.51-.06-5-.17a29.08,29.08,0,0,1-4.14-.61,16.87,16.87,0,0,1-3.39-1.14l2.77-7.61a13.37,13.37,0,0,0,5,2.57,20.16,20.16,0,0,0,5.56.83,9.31,9.31,0,0,0,3.57-.62,3.58,3.58,0,0,0,2-2.15,1.31,1.31,0,0,0-.62-1.68,10.52,10.52,0,0,0-2.87-1.16c-1.24-.35-2.64-.76-4.18-1.24a16.68,16.68,0,0,1-2.6-1.07,6.56,6.56,0,0,1-2-1.57,4.48,4.48,0,0,1-1-2.32,7,7,0,0,1,.51-3.36,11.89,11.89,0,0,1,2.27-3.76,16,16,0,0,1,3.87-3.18,20.45,20.45,0,0,1,5.39-2.17,27.7,27.7,0,0,1,6.81-.78,35.92,35.92,0,0,1,4,.2,18.16,18.16,0,0,1,3.19.65,20.91,20.91,0,0,1,2.86,1.12Z"/><polygon class="cls-1" points="150.12 310.22 161.4 310.22 140.38 260.85 130.44 260.85 109.43 310.22 116.42 310.22 120.43 310.22 143.31 310.22 139.24 300.24 124.49 300.24 135.27 273.8 150.12 310.22"/><polygon class="cls-1" points="260.85 310.22 272.13 310.22 251.12 260.85 241.17 260.85 220.16 310.22 227.15 310.22 231.16 310.22 254.04 310.22 249.98 300.24 235.23 300.24 246 273.8 260.85 310.22"/><polygon class="cls-1" points="376.97 310.22 388.24 310.22 367.23 260.85 357.29 260.85 336.28 310.22 343.27 310.22 347.27 310.22 370.16 310.22 366.09 300.24 351.34 300.24 362.12 273.8 376.97 310.22"/><polygon class="cls-1" points="317.09 261.19 304.2 281.93 291.32 261.19 279.69 261.19 279.69 310.22 290.34 310.22 290.34 278.42 301.12 294.79 307.15 294.79 318.07 278.21 318.07 310.22 328.71 310.22 328.71 261.19 317.09 261.19"/><path class="cls-1" d="M426.2,292.71a16.86,16.86,0,0,0,7.6-5.5,15.34,15.34,0,0,0,2.91-9.7v-.14q0-7.64-4.87-11.9t-13.62-4.28H389.09v9.74h28.22a9.86,9.86,0,0,1,6.23,1.75,6.27,6.27,0,0,1,2.24,5.25v.14a6.42,6.42,0,0,1-2.14,5.05,8.93,8.93,0,0,1-6.12,1.89H405.75V277.3h-9.94v32.92h10.78V294.53h8.48l10.5,15.69h12.61Z"/><path class="cls-1" d="M200.78,292.71a16.83,16.83,0,0,0,7.59-5.5,15.34,15.34,0,0,0,2.91-9.7v-.14q0-7.64-4.87-11.9t-13.62-4.28H163.66v9.74h28.22a9.86,9.86,0,0,1,6.23,1.75,6.24,6.24,0,0,1,2.24,5.25v.14a6.44,6.44,0,0,1-2.13,5.05,9,9,0,0,1-6.13,1.89H180.32V277.3h-9.94v32.92h10.78V294.53h8.48l10.5,15.69h12.61Z"/><path class="cls-1" d="M77.82,261.19l4.64,11.07H94.4v20.52c0,2.85-.58,4.91-1.75,6.2a6.22,6.22,0,0,1-4.83,1.92,9,9,0,0,1-4.73-1.29A19.8,19.8,0,0,1,78.85,296l-6.79,7.57a22.81,22.81,0,0,0,6.41,5.18,19.48,19.48,0,0,0,9.63,2.17,21.89,21.89,0,0,0,7.07-1.09,14.33,14.33,0,0,0,5.5-3.29,15.18,15.18,0,0,0,3.54-5.5,21.67,21.67,0,0,0,1.26-7.77V261.19Z"/><path class="cls-1" d="M340.78,149.28a85.66,85.66,0,0,1-132.38,71.8l39-5.52a64.92,64.92,0,0,0,7.68.44,66.23,66.23,0,0,0,25.74-5.17,65.54,65.54,0,0,0,10.9-5.84,66.51,66.51,0,0,0,22.94-85l16.75-9.66A85.33,85.33,0,0,1,340.78,149.28Z"/><path class="cls-1" d="M306.27,80.56l-33.81,4.79a66.59,66.59,0,0,0-51.79,7.33c-1.57.94-3.1,2-4.58,3a66.5,66.5,0,0,0-19.26,85.77L180.31,191a85.67,85.67,0,0,1,126-110.47Z"/><path class="cls-1" d="M296.19,133.45,142.34,222.28l132.42-18.74L250.91,188a4.88,4.88,0,0,1-.82-7.49Z"/><path class="cls-1" d="M214.05,168.83,367.9,80,235.48,98.74l23.85,15.58a4.86,4.86,0,0,1,.81,7.48Z"/></svg>