<svg id="Capa_1" data-name="Capa 1" xmlns="http://www.w3.org/2000/svg" viewBox="0 0 510.24 425.2"><defs><style>.cls-1{fill:#ff5100;}.cls-2{fill:#fff;}.cls-3{fill:#001b71;}.cls-4{fill:#636569;}</style></defs><path class="cls-1" d="M369.47,337.24H118.92l13.91-34.3a8.71,8.71,0,0,1,7.94-5.66H391.32L377.4,331.59A8.67,8.67,0,0,1,369.47,337.24Z"/><path class="cls-2" d="M135.5,332.23l10.85-29.85h25.49l-2.25,6.18H154.08L152,314.2h13.38l-2.25,6.17H149.73l-2.06,5.69h15.56L161,332.23Z"/><polygon class="cls-2" points="183.04 326.46 176.88 332.23 166.19 332.23 180.17 320.28 183.04 326.46"/><polygon class="cls-2" points="202.75 332.23 190.37 332.23 176.5 302.38 188.88 302.38 202.75 332.23"/><polygon class="cls-2" points="213.16 302.38 199.18 314.56 196.23 308.22 202.37 302.38 213.16 302.38"/><path class="cls-2" d="M218.3,322.79l-3.43,9.44H205l10.85-29.85H233q6.48,0,9.36,2.37t1,7.48a14.52,14.52,0,0,1-6.59,7.81,22.06,22.06,0,0,1-11.22,2.75Zm2.25-6.17h6a8,8,0,0,0,2-.25,5.42,5.42,0,0,0,1.67-.76,6.05,6.05,0,0,0,1.3-1.23,5.85,5.85,0,0,0,.88-1.61,4.85,4.85,0,0,0,.35-1.79,2.55,2.55,0,0,0-.37-1.32,2,2,0,0,0-1.09-.83,5.33,5.33,0,0,0-1.8-.27h-6Z"/><path class="cls-2" d="M278.19,304.75q-2.81-2.37-9.17-2.37H250.6l-10.85,29.85h9.92l3.6-9.89h4.66l3.2,9.89h12.72l-5.13-11.53A14.63,14.63,0,0,0,273,319a15.77,15.77,0,0,0,3.93-3.29,12.42,12.42,0,0,0,2.26-3.72C280.41,308.75,280.06,306.34,278.19,304.75Zm-12.27,10.84a6.8,6.8,0,0,1-3.47.94h-7.07l2.9-8h7.29a3.37,3.37,0,0,1,2.65.94q.82.94.12,2.91A5.84,5.84,0,0,1,265.92,315.59Z"/><path class="cls-2" d="M277.35,332.23l10.86-29.85h25.48l-2.24,6.18H295.94l-2.05,5.64h13.37L305,320.37H291.59l-2.07,5.69h15.57l-2.25,6.17Z"/><path class="cls-2" d="M321.29,332.86c-1.82,0-3.5-.06-5-.18a28.93,28.93,0,0,1-4.14-.6,17.52,17.52,0,0,1-3.39-1.14l2.76-7.61a13.66,13.66,0,0,0,5,2.57,20.61,20.61,0,0,0,5.57.83,9.12,9.12,0,0,0,3.57-.63,3.53,3.53,0,0,0,2-2.15,1.3,1.3,0,0,0-.62-1.67,10.49,10.49,0,0,0-2.87-1.17c-1.24-.34-2.64-.75-4.18-1.23a17.71,17.71,0,0,1-2.6-1.07,6.56,6.56,0,0,1-2-1.57,4.48,4.48,0,0,1-1-2.33,6.93,6.93,0,0,1,.51-3.35,11.78,11.78,0,0,1,2.27-3.76,16,16,0,0,1,3.86-3.18,20.18,20.18,0,0,1,5.4-2.17,27.7,27.7,0,0,1,6.81-.78,33.75,33.75,0,0,1,4,.2,17.29,17.29,0,0,1,3.19.65,20.29,20.29,0,0,1,2.85,1.12l-2.8,7.69a11.67,11.67,0,0,0-2.23-1.61,17.35,17.35,0,0,0-2.9-1.29,11.85,11.85,0,0,0-3.28-.63,14,14,0,0,0-2.84.2,6.9,6.9,0,0,0-2.4.87,3.31,3.31,0,0,0-1.42,1.7,1.54,1.54,0,0,0,.27,1.77,5.13,5.13,0,0,0,2.13,1.08q1.45.42,3.27.87a28.75,28.75,0,0,1,3.76,1.21,8.16,8.16,0,0,1,2.65,1.65,4.33,4.33,0,0,1,1.27,2.4,6.69,6.69,0,0,1-.48,3.42,12.68,12.68,0,0,1-3.5,5.1,17.94,17.94,0,0,1-5.9,3.52A21.75,21.75,0,0,1,321.29,332.86Z"/><path class="cls-2" d="M352.59,332.86q-2.74,0-5-.18a29.15,29.15,0,0,1-4.14-.6,17.52,17.52,0,0,1-3.39-1.14l2.77-7.61a13.51,13.51,0,0,0,5,2.57,20.55,20.55,0,0,0,5.56.83,9.12,9.12,0,0,0,3.57-.63,3.53,3.53,0,0,0,2-2.15,1.3,1.3,0,0,0-.62-1.67,10.49,10.49,0,0,0-2.87-1.17c-1.24-.34-2.64-.75-4.18-1.23a17.71,17.71,0,0,1-2.6-1.07,6.56,6.56,0,0,1-2-1.57,4.48,4.48,0,0,1-1-2.33,6.93,6.93,0,0,1,.51-3.35,11.78,11.78,0,0,1,2.27-3.76,15.83,15.83,0,0,1,3.87-3.18,20.11,20.11,0,0,1,5.39-2.17,27.7,27.7,0,0,1,6.81-.78,33.64,33.64,0,0,1,4,.2,17.29,17.29,0,0,1,3.19.65,20.91,20.91,0,0,1,2.86,1.12l-2.8,7.69a12.09,12.09,0,0,0-2.24-1.61,17,17,0,0,0-2.9-1.29,11.85,11.85,0,0,0-3.28-.63,14,14,0,0,0-2.84.2,6.9,6.9,0,0,0-2.4.87,3.29,3.29,0,0,0-1.41,1.7,1.54,1.54,0,0,0,.26,1.77,5.13,5.13,0,0,0,2.13,1.08q1.46.42,3.27.87a28.75,28.75,0,0,1,3.76,1.21,8.32,8.32,0,0,1,2.66,1.65,4.38,4.38,0,0,1,1.26,2.4,6.78,6.78,0,0,1-.47,3.42,12.78,12.78,0,0,1-3.5,5.1,18.1,18.1,0,0,1-5.91,3.52A21.65,21.65,0,0,1,352.59,332.86Z"/><polygon class="cls-3" points="150.12 285.89 161.4 285.89 140.38 236.51 130.44 236.51 109.43 285.89 116.42 285.89 120.43 285.89 143.31 285.89 139.24 275.91 124.49 275.91 135.27 249.47 150.12 285.89"/><polygon class="cls-3" points="260.85 285.89 272.13 285.89 251.12 236.51 241.17 236.51 220.16 285.89 227.15 285.89 231.16 285.89 254.04 285.89 249.98 275.91 235.23 275.91 246 249.47 260.85 285.89"/><polygon class="cls-3" points="376.97 285.89 388.24 285.89 367.23 236.51 357.29 236.51 336.28 285.89 343.27 285.89 347.27 285.89 370.16 285.89 366.09 275.91 351.34 275.91 362.12 249.47 376.97 285.89"/><polygon class="cls-3" points="317.09 236.86 304.2 257.59 291.32 236.86 279.69 236.86 279.69 285.89 290.34 285.89 290.34 254.09 301.12 270.46 307.15 270.46 318.07 253.88 318.07 285.89 328.71 285.89 328.71 236.86 317.09 236.86"/><path class="cls-3" d="M426.2,268.38a16.86,16.86,0,0,0,7.6-5.5,15.36,15.36,0,0,0,2.91-9.7V253q0-7.64-4.87-11.91t-13.62-4.27H389.09v9.74h28.22a9.86,9.86,0,0,1,6.23,1.75,6.26,6.26,0,0,1,2.24,5.25v.14a6.38,6.38,0,0,1-2.14,5,8.93,8.93,0,0,1-6.12,1.89H405.75V253h-9.94v32.93h10.78V270.2h8.48l10.5,15.69h12.61Z"/><path class="cls-3" d="M200.78,268.38a16.83,16.83,0,0,0,7.59-5.5,15.36,15.36,0,0,0,2.91-9.7V253q0-7.64-4.87-11.91t-13.62-4.27H163.66v9.74h28.22a9.86,9.86,0,0,1,6.23,1.75,6.23,6.23,0,0,1,2.24,5.25v.14a6.41,6.41,0,0,1-2.13,5,9,9,0,0,1-6.13,1.89H180.32V253h-9.94v32.93h10.78V270.2h8.48l10.5,15.69h12.61Z"/><path class="cls-3" d="M77.82,236.85l4.64,11.08H94.4v20.53c0,2.85-.58,4.91-1.75,6.2a6.22,6.22,0,0,1-4.83,1.92,9,9,0,0,1-4.73-1.29,19.8,19.8,0,0,1-4.24-3.61l-6.79,7.56a22.47,22.47,0,0,0,6.41,5.18,19.48,19.48,0,0,0,9.63,2.18,22.16,22.16,0,0,0,7.07-1.09,14.33,14.33,0,0,0,5.5-3.29,15.18,15.18,0,0,0,3.54-5.5,21.67,21.67,0,0,0,1.26-7.77V236.85Z"/><path class="cls-3" d="M340.78,125a85.66,85.66,0,0,1-132.38,71.8l39-5.53a64.91,64.91,0,0,0,7.68.45,66.49,66.49,0,0,0,59.58-96L331.45,86A85.4,85.4,0,0,1,340.78,125Z"/><path class="cls-3" d="M306.27,56.23,272.46,61a66.68,66.68,0,0,0-51.79,7.34c-1.57.94-3.1,2-4.58,3a66.5,66.5,0,0,0-19.26,85.77l-16.52,9.54a85.67,85.67,0,0,1,126-110.47Z"/><path class="cls-3" d="M296.19,109.12,142.34,197.94,274.76,179.2l-23.85-15.58a4.87,4.87,0,0,1-.82-7.48Z"/><path class="cls-1" d="M214.05,144.49,367.9,55.67,235.48,74.41,259.33,90a4.86,4.86,0,0,1,.81,7.48Z"/><path class="cls-4" d="M109,382.36h-2.83l-1.54-3.67h-7.2l-1.57,3.67H93.1L99.8,367h2.48Zm-8-12.14-2.61,6.09h5.24Z"/><path class="cls-4" d="M111,382.36V366.48h2.65v15.88Z"/><path class="cls-4" d="M128,378.75l2.35-7.87H133l-3.76,11.57h-2.35l-2.57-7.85-2.59,7.85H119.4l-3.72-11.57h2.7l2.31,7.87,2.54-7.92h2.24Z"/><path class="cls-4" d="M141.53,382.36V381a5,5,0,0,1-1.5,1.17,4.73,4.73,0,0,1-2.22.48,5.06,5.06,0,0,1-1.57-.23,3.77,3.77,0,0,1-1.29-.67,3.49,3.49,0,0,1-.9-1.11,3.38,3.38,0,0,1-.33-1.53V379a3.52,3.52,0,0,1,.35-1.63,3.15,3.15,0,0,1,1-1.15,4.49,4.49,0,0,1,1.48-.69,7.4,7.4,0,0,1,1.86-.23,11.1,11.1,0,0,1,1.78.13,12.45,12.45,0,0,1,1.4.35v-.28a2.27,2.27,0,0,0-.73-1.83,3.14,3.14,0,0,0-2.1-.63,7.05,7.05,0,0,0-1.74.2,10.74,10.74,0,0,0-1.54.52l-.72-2.11a12.72,12.72,0,0,1,2-.7,9.81,9.81,0,0,1,2.41-.26A5.15,5.15,0,0,1,142.9,372a5,5,0,0,1,1.24,3.58v6.81Zm.06-4.87a7,7,0,0,0-1.18-.33A8.41,8.41,0,0,0,139,377a3.39,3.39,0,0,0-1.94.48,1.57,1.57,0,0,0-.69,1.37v.05a1.42,1.42,0,0,0,.64,1.26,2.74,2.74,0,0,0,1.58.43,4.14,4.14,0,0,0,1.2-.17,3.16,3.16,0,0,0,1-.49,2.35,2.35,0,0,0,.65-.76,2.18,2.18,0,0,0,.22-1Z"/><path class="cls-4" d="M152.54,382.69a11.8,11.8,0,0,1-.72,1.5,3.76,3.76,0,0,1-.83,1,3.09,3.09,0,0,1-1,.56,4.27,4.27,0,0,1-1.24.17,5.09,5.09,0,0,1-1.47-.19,6.08,6.08,0,0,1-1.25-.51l.89-2a4.83,4.83,0,0,0,.75.32,2.67,2.67,0,0,0,.8.12,1.53,1.53,0,0,0,.93-.28,2.6,2.6,0,0,0,.7-1.05l-4.79-11.46h2.81l3.26,8.52,3-8.52h2.74Z"/><path class="cls-4" d="M166.37,380.56a3.19,3.19,0,0,1-.9,1.12,4,4,0,0,1-1.36.67,6,6,0,0,1-1.68.23,7.75,7.75,0,0,1-2.51-.43,8,8,0,0,1-2.36-1.29l1.18-1.78a7.62,7.62,0,0,0,1.9,1.05,5.28,5.28,0,0,0,1.86.36,2.23,2.23,0,0,0,1.32-.34,1,1,0,0,0,.46-.9v0a.88.88,0,0,0-.2-.57,1.84,1.84,0,0,0-.57-.42,5.52,5.52,0,0,0-.83-.33l-1-.29c-.42-.13-.85-.28-1.28-.44a4.38,4.38,0,0,1-1.15-.62,3.12,3.12,0,0,1-.84-.93,2.76,2.76,0,0,1-.32-1.38v-.05a3.28,3.28,0,0,1,.31-1.45,3.16,3.16,0,0,1,.87-1.11,3.83,3.83,0,0,1,1.31-.7,5.2,5.2,0,0,1,1.6-.24,7.36,7.36,0,0,1,2.19.35,7.74,7.74,0,0,1,2,1l-1.05,1.87a8.77,8.77,0,0,0-1.67-.8,5,5,0,0,0-1.57-.29,1.86,1.86,0,0,0-1.18.33,1,1,0,0,0-.43.82V374a.73.73,0,0,0,.22.53,2.05,2.05,0,0,0,.58.41,5.31,5.31,0,0,0,.82.35l1,.32q.63.19,1.26.45a5.7,5.7,0,0,1,1.14.64,3.38,3.38,0,0,1,.84.93,2.5,2.5,0,0,1,.33,1.33v0A3.58,3.58,0,0,1,166.37,380.56Z"/><path class="cls-4" d="M186.24,371.2a4.27,4.27,0,0,1,2.25-.56,3.84,3.84,0,0,1,3,1.14,4.6,4.6,0,0,1,1.07,3.25v7.33h-2.65v-6.51a3.17,3.17,0,0,0-.61-2.08,2.1,2.1,0,0,0-1.71-.72,2.32,2.32,0,0,0-1.77.73,3,3,0,0,0-.68,2.11v6.47h-2.65v-6.53a3.07,3.07,0,0,0-.61-2.06,2.1,2.1,0,0,0-1.71-.72,2.25,2.25,0,0,0-1.77.76,3.08,3.08,0,0,0-.68,2.11v6.44H175V370.88h2.65v1.75a8.89,8.89,0,0,1,.61-.74,4.68,4.68,0,0,1,.75-.64,3.69,3.69,0,0,1,1-.45,4,4,0,0,1,1.18-.16,3.62,3.62,0,0,1,3.42,2A5.49,5.49,0,0,1,186.24,371.2Z"/><path class="cls-4" d="M206.41,379a6.06,6.06,0,0,1-1.28,1.9,6.28,6.28,0,0,1-1.95,1.3,6.38,6.38,0,0,1-2.46.47,6.21,6.21,0,0,1-2.42-.46,5.93,5.93,0,0,1-1.94-1.29,5.9,5.9,0,0,1-1.73-4.21,6,6,0,0,1,3.69-5.54,6.15,6.15,0,0,1,2.45-.48,6.28,6.28,0,0,1,2.44.46,5.93,5.93,0,0,1,1.94,1.29,6,6,0,0,1,1.26,6.56ZM204,375.23a3.89,3.89,0,0,0-.73-1.19,3.35,3.35,0,0,0-1.1-.8,3.31,3.31,0,0,0-1.42-.3,3.24,3.24,0,0,0-1.41.3,3.36,3.36,0,0,0-1.1.79,3.42,3.42,0,0,0-.69,1.17,4.24,4.24,0,0,0,0,2.87,3.73,3.73,0,0,0,.73,1.18,3.5,3.5,0,0,0,1.1.8,3.4,3.4,0,0,0,1.4.29,3.45,3.45,0,0,0,1.43-.29,3.25,3.25,0,0,0,1.09-.8,3.34,3.34,0,0,0,.7-1.16,4.17,4.17,0,0,0,.24-1.43A4,4,0,0,0,204,375.23Z"/><path class="cls-4" d="M216.41,370.88h2.76l-4.7,11.57H212.1l-4.72-11.57h2.83l3.09,8.44Z"/><path class="cls-4" d="M221,369.11v-2.5h2.85v2.5Zm.11,13.25V370.88h2.65v11.48Z"/><path class="cls-4" d="M229.42,382.36h-2.66V370.88h2.66v1.8a5.83,5.83,0,0,1,.61-.78,4.49,4.49,0,0,1,.78-.65,3.86,3.86,0,0,1,2.19-.61,3.84,3.84,0,0,1,3,1.19,4.67,4.67,0,0,1,1.06,3.22v7.31h-2.65v-6.51a3,3,0,0,0-.64-2.07,2.24,2.24,0,0,0-1.8-.73,2.43,2.43,0,0,0-1.85.75,2.9,2.9,0,0,0-.71,2.09Z"/><path class="cls-4" d="M249.5,384.47a6.69,6.69,0,0,1-4.57,1.42,9.76,9.76,0,0,1-5.14-1.37l1-2a9.28,9.28,0,0,0,1.92.89,6.86,6.86,0,0,0,2.17.33,3.73,3.73,0,0,0,2.7-.9,3.52,3.52,0,0,0,.94-2.65v-.89a6.29,6.29,0,0,1-1.68,1.54,4.48,4.48,0,0,1-2.37.59,5.41,5.41,0,0,1-2-.36,5,5,0,0,1-1.66-1,5.15,5.15,0,0,1-1.17-1.7,6.29,6.29,0,0,1,0-4.57,5.15,5.15,0,0,1,1.17-1.7A5,5,0,0,1,242.5,371a5.24,5.24,0,0,1,1.95-.37,4.49,4.49,0,0,1,2.4.58,6.62,6.62,0,0,1,1.62,1.39v-1.73h2.64V380A5.65,5.65,0,0,1,249.5,384.47Zm-1.26-9.72a3.09,3.09,0,0,0-.72-1,3.63,3.63,0,0,0-1.08-.64,3.78,3.78,0,0,0-1.3-.22,3.55,3.55,0,0,0-1.28.22,3.38,3.38,0,0,0-1,.64,3,3,0,0,0-.7,1,3.16,3.16,0,0,0-.25,1.29,3.21,3.21,0,0,0,.26,1.3,3.27,3.27,0,0,0,.7,1,3,3,0,0,0,1,.65,3.58,3.58,0,0,0,1.27.23,3.78,3.78,0,0,0,1.3-.23,3.28,3.28,0,0,0,1.08-.65,3.23,3.23,0,0,0,.72-1,2.84,2.84,0,0,0,.28-1.29A3,3,0,0,0,248.24,374.75Z"/><path class="cls-4" d="M260.09,369.11v-2.5h2.85v2.5Zm.11,13.25V370.88h2.65v11.48Z"/><path class="cls-4" d="M268.49,382.36h-2.66V370.88h2.66v1.8a5.83,5.83,0,0,1,.61-.78,4.21,4.21,0,0,1,.79-.65,3.91,3.91,0,0,1,1-.45,4.12,4.12,0,0,1,1.21-.16,3.84,3.84,0,0,1,3,1.19,4.67,4.67,0,0,1,1.06,3.22v7.31h-2.65v-6.51a3,3,0,0,0-.64-2.07,2.24,2.24,0,0,0-1.8-.73,2.43,2.43,0,0,0-1.85.75,2.9,2.9,0,0,0-.71,2.09Z"/><path class="cls-4" d="M292,382.36V381a5,5,0,0,1-1.5,1.17,4.73,4.73,0,0,1-2.22.48,5,5,0,0,1-1.56-.23,3.73,3.73,0,0,1-1.3-.67,3.34,3.34,0,0,1-.89-1.11,3.38,3.38,0,0,1-.34-1.53V379a3.66,3.66,0,0,1,.35-1.63,3.18,3.18,0,0,1,1-1.15,4.4,4.4,0,0,1,1.48-.69,7.29,7.29,0,0,1,1.86-.23,11,11,0,0,1,1.77.13,11.93,11.93,0,0,1,1.4.35v-.28a2.3,2.3,0,0,0-.72-1.83,3.14,3.14,0,0,0-2.1-.63,6.94,6.94,0,0,0-1.74.2,10.86,10.86,0,0,0-1.55.52l-.72-2.11a12.72,12.72,0,0,1,2-.7,9.9,9.9,0,0,1,2.42-.26,5.11,5.11,0,0,1,3.8,1.27,4.92,4.92,0,0,1,1.24,3.58v6.81Zm.07-4.87a7.18,7.18,0,0,0-1.19-.33,8.29,8.29,0,0,0-1.44-.13,3.37,3.37,0,0,0-1.94.48,1.58,1.58,0,0,0-.7,1.37v.05a1.43,1.43,0,0,0,.65,1.26,2.71,2.71,0,0,0,1.57.43,4.21,4.21,0,0,0,1.21-.17,3.28,3.28,0,0,0,1-.49,2.32,2.32,0,0,0,.64-.76,2.19,2.19,0,0,0,.23-1Z"/><path class="cls-4" d="M297.46,382.36V366.48h2.66v15.88Z"/><path class="cls-4" d="M303.25,382.36V366.48h2.65v15.88Z"/><path class="cls-4" d="M323.61,382.36v-1.91A6,6,0,0,1,322,382a4.12,4.12,0,0,1-2.33.63,5.21,5.21,0,0,1-2-.39,4.87,4.87,0,0,1-1.69-1.16,6.31,6.31,0,0,1-1.2-1.88,6.75,6.75,0,0,1-.45-2.55,7,7,0,0,1,.44-2.55,5.81,5.81,0,0,1,1.19-1.88,4.91,4.91,0,0,1,1.7-1.16,5.26,5.26,0,0,1,2-.39,4.16,4.16,0,0,1,2.34.61,6.24,6.24,0,0,1,1.56,1.41v-6.18h2.66v15.88Zm-.23-7.26a3.84,3.84,0,0,0-.72-1.17,3.16,3.16,0,0,0-2.32-1,3.38,3.38,0,0,0-1.27.25,3.06,3.06,0,0,0-1.05.73,3.5,3.5,0,0,0-.72,1.16,4.48,4.48,0,0,0-.26,1.56,4.3,4.3,0,0,0,.26,1.53,3.45,3.45,0,0,0,.72,1.17,3.15,3.15,0,0,0,2.32,1,3.16,3.16,0,0,0,2.32-1,4.17,4.17,0,0,0,.72-4.21Z"/><path class="cls-4" d="M329.16,369.11v-2.5H332v2.5Zm.11,13.25V370.88h2.65v11.48Z"/><path class="cls-4" d="M337.56,382.36H334.9V370.88h2.66v2.59a5,5,0,0,1,1.54-2.09,3.75,3.75,0,0,1,2.53-.72v2.78h-.16a4.19,4.19,0,0,0-1.58.29,3.21,3.21,0,0,0-1.24.84,3.9,3.9,0,0,0-.81,1.43,6.33,6.33,0,0,0-.28,2Z"/><path class="cls-4" d="M346.19,379.72a3.28,3.28,0,0,0,2.18.75,3.91,3.91,0,0,0,1.7-.35,5.5,5.5,0,0,0,1.41-1l1.54,1.37a6.35,6.35,0,0,1-2,1.57,6,6,0,0,1-2.73.58,6.14,6.14,0,0,1-2.32-.43,5.66,5.66,0,0,1-1.87-1.22,5.58,5.58,0,0,1-1.25-1.88,6.22,6.22,0,0,1-.46-2.45,6.64,6.64,0,0,1,.41-2.33,5.94,5.94,0,0,1,1.17-1.9,5.53,5.53,0,0,1,1.77-1.29,5.26,5.26,0,0,1,2.26-.48,5.38,5.38,0,0,1,2.41.5,5,5,0,0,1,1.72,1.35,5.83,5.83,0,0,1,1,2,8,8,0,0,1,.35,2.37c0,.11,0,.23,0,.35s0,.23,0,.36h-8.44A3.48,3.48,0,0,0,346.19,379.72Zm4.75-3.91a4.53,4.53,0,0,0-.29-1.18,3.08,3.08,0,0,0-.58-1,2.85,2.85,0,0,0-.89-.64,2.86,2.86,0,0,0-3.17.6,3.82,3.82,0,0,0-1,2.18Z"/><path class="cls-4" d="M363.86,382a5.82,5.82,0,0,1-2.76.59,5.82,5.82,0,0,1-4.27-1.75,5.93,5.93,0,0,1-1.7-4.21,6,6,0,0,1,.45-2.32,6.07,6.07,0,0,1,1.25-1.92,5.84,5.84,0,0,1,1.9-1.3,5.93,5.93,0,0,1,2.39-.48,6.06,6.06,0,0,1,2.71.54,6.42,6.42,0,0,1,1.88,1.44l-1.63,1.76a5.89,5.89,0,0,0-1.3-1,3.27,3.27,0,0,0-1.68-.41,3,3,0,0,0-1.33.3,3.16,3.16,0,0,0-1,.79,3.75,3.75,0,0,0-.68,1.17,3.89,3.89,0,0,0-.25,1.42,4.11,4.11,0,0,0,.25,1.46,3.46,3.46,0,0,0,.71,1.17,3.31,3.31,0,0,0,1.08.8,3.37,3.37,0,0,0,1.4.29,3.24,3.24,0,0,0,1.64-.4,6.45,6.45,0,0,0,1.34-1l1.58,1.57A7.2,7.2,0,0,1,363.86,382Z"/><path class="cls-4" d="M371,378.77a1.4,1.4,0,0,0,.37,1.1,1.48,1.48,0,0,0,1.05.34,3.65,3.65,0,0,0,1.63-.39V382a5,5,0,0,1-1.07.44,5.1,5.1,0,0,1-1.3.15,4.77,4.77,0,0,1-1.34-.18,2.64,2.64,0,0,1-1.06-.56,2.5,2.5,0,0,1-.69-1,4.61,4.61,0,0,1-.24-1.6v-6.06h-1.46v-2.24h1.46v-3.16H371v3.16H374v2.24H371Z"/><path class="cls-4" d="M376.28,369.11v-2.5h2.85v2.5Zm.11,13.25V370.88H379v11.48Z"/><path class="cls-4" d="M393.17,379a6.06,6.06,0,0,1-1.28,1.9,6.17,6.17,0,0,1-1.95,1.3,6.38,6.38,0,0,1-2.46.47,6.21,6.21,0,0,1-2.42-.46,6,6,0,0,1-1.94-1.29,5.9,5.9,0,0,1-1.73-4.21,6,6,0,0,1,3.69-5.54,6.15,6.15,0,0,1,2.45-.48,6.28,6.28,0,0,1,2.44.46,5.93,5.93,0,0,1,1.94,1.29,6,6,0,0,1,1.26,6.56Zm-2.44-3.72A3.89,3.89,0,0,0,390,374a3.35,3.35,0,0,0-1.1-.8,3.31,3.31,0,0,0-1.42-.3,3.24,3.24,0,0,0-1.41.3,3.36,3.36,0,0,0-1.1.79,3.42,3.42,0,0,0-.69,1.17,4.11,4.11,0,0,0-.23,1.42,3.92,3.92,0,0,0,.26,1.45,3.5,3.5,0,0,0,1.82,2,3.4,3.4,0,0,0,1.4.29,3.45,3.45,0,0,0,1.43-.29,3.39,3.39,0,0,0,1.1-.8,3.47,3.47,0,0,0,.69-1.16,4.17,4.17,0,0,0,.24-1.43A4,4,0,0,0,390.73,375.23Z"/><path class="cls-4" d="M398.53,382.36h-2.65V370.88h2.65v1.8a6.85,6.85,0,0,1,.62-.78,4.49,4.49,0,0,1,.78-.65,4.16,4.16,0,0,1,1-.45,4.05,4.05,0,0,1,1.2-.16,3.84,3.84,0,0,1,3,1.19,4.67,4.67,0,0,1,1.06,3.22v7.31h-2.65v-6.51a3,3,0,0,0-.64-2.07,2.24,2.24,0,0,0-1.8-.73,2.43,2.43,0,0,0-1.85.75,2.9,2.9,0,0,0-.72,2.09Z"/><path class="cls-4" d="M416.81,380.56a3.19,3.19,0,0,1-.9,1.12,4,4,0,0,1-1.36.67,6.09,6.09,0,0,1-1.68.23,7.7,7.7,0,0,1-2.51-.43,7.89,7.89,0,0,1-2.36-1.29l1.17-1.78a7.85,7.85,0,0,0,1.91,1.05,5.28,5.28,0,0,0,1.86.36,2.17,2.17,0,0,0,1.31-.34,1.05,1.05,0,0,0,.47-.9v0a.84.84,0,0,0-.21-.57,1.68,1.68,0,0,0-.56-.42,6,6,0,0,0-.83-.33l-1-.29c-.42-.13-.84-.28-1.27-.44a4.38,4.38,0,0,1-1.15-.62,3.12,3.12,0,0,1-.84-.93,2.66,2.66,0,0,1-.33-1.38v-.05a3.28,3.28,0,0,1,.32-1.45,3.16,3.16,0,0,1,.87-1.11,3.79,3.79,0,0,1,1.3-.7,5.25,5.25,0,0,1,1.6-.24,7.37,7.37,0,0,1,2.2.35,7.67,7.67,0,0,1,2,1l-1,1.87a8.57,8.57,0,0,0-1.68-.8,4.89,4.89,0,0,0-1.56-.29,1.89,1.89,0,0,0-1.19.33,1,1,0,0,0-.42.82V374a.73.73,0,0,0,.22.53,2,2,0,0,0,.57.41,5.92,5.92,0,0,0,.83.35l1,.32q.63.19,1.26.45a5.7,5.7,0,0,1,1.14.64,3.38,3.38,0,0,1,.84.93,2.5,2.5,0,0,1,.32,1.33v0A3.58,3.58,0,0,1,416.81,380.56Z"/></svg>