<svg id="Capa_1" data-name="Capa 1" xmlns="http://www.w3.org/2000/svg" viewBox="0 0 510.24 425.2"><defs><style>.cls-1{fill:#fff;}</style></defs><path class="cls-1" d="M416.6,212.61A161.49,161.49,0,0,1,167,348l73.6-10.41a123.45,123.45,0,0,0,14.47.84A125.35,125.35,0,0,0,367.44,157.46L399,139.24A161,161,0,0,1,416.6,212.61Z"/><path class="cls-1" d="M351.55,83.06l-63.75,9a125.68,125.68,0,0,0-97.62,13.83q-4.45,2.67-8.63,5.74a125.34,125.34,0,0,0-36.31,161.68l-31.15,18A161.5,161.5,0,0,1,351.55,83.06Z"/><path class="cls-1" d="M332.54,182.76l-290,167.45,249.62-35.33-45-29.37a9.17,9.17,0,0,1-1.53-14.11Z"/><path class="cls-1" d="M177.69,249.44,467.72,82,218.09,117.33l45,29.37a9.17,9.17,0,0,1,1.53,14.1Z"/></svg>