<svg id="Capa_1" data-name="Capa 1" xmlns="http://www.w3.org/2000/svg" viewBox="0 0 708.66 283.46"><defs><style>.cls-1{fill:#878787;}.cls-2{fill:#fff;}.cls-3{fill:#575756;}</style></defs><path class="cls-1" d="M540.39,201.9H278.11L292.68,166a9.09,9.09,0,0,1,8.3-5.92H563.26L548.69,196A9.09,9.09,0,0,1,540.39,201.9Z"/><path class="cls-2" d="M295.47,196.66l11.36-31.25h26.68l-2.35,6.46H314.92l-2.15,5.91h14l-2.35,6.46H310.37l-2.17,5.95h16.3l-2.35,6.47Z"/><polygon class="cls-2" points="345.24 190.62 338.79 196.66 327.6 196.66 342.23 184.14 345.24 190.62"/><polygon class="cls-2" points="365.87 196.66 352.9 196.66 338.38 165.41 351.35 165.41 365.87 196.66"/><polygon class="cls-2" points="376.77 165.41 362.13 178.15 359.04 171.51 365.47 165.41 376.77 165.41"/><path class="cls-2" d="M382.15,186.77l-3.6,9.89H368.17l11.36-31.25h18q6.76,0,9.79,2.48t1.09,7.83a15.16,15.16,0,0,1-6.9,8.17,23.07,23.07,0,0,1-11.75,2.88Zm2.35-6.46h6.31a8.21,8.21,0,0,0,2.07-.26,5.29,5.29,0,0,0,1.75-.8A5.94,5.94,0,0,0,396,178a6.09,6.09,0,0,0,.93-1.68,5.32,5.32,0,0,0,.37-1.88,2.79,2.79,0,0,0-.39-1.38,2.1,2.1,0,0,0-1.15-.86,5.5,5.5,0,0,0-1.88-.29h-6.31Z"/><path class="cls-2" d="M444.84,167.89q-2.94-2.47-9.6-2.48H416L404.6,196.66H415l3.76-10.36h4.88L427,196.66h13.31l-5.36-12.08a14.9,14.9,0,0,0,4.51-1.77,16.12,16.12,0,0,0,4.12-3.44,12.83,12.83,0,0,0,2.36-3.89Q447.78,170.38,444.84,167.89ZM432,179.23a7,7,0,0,1-3.63,1H421l3-8.34h7.63a3.53,3.53,0,0,1,2.77,1c.58.65.62,1.67.12,3A6,6,0,0,1,432,179.23Z"/><path class="cls-2" d="M444,196.66l11.36-31.25H482l-2.35,6.46H463.42l-2.15,5.91h14l-2.35,6.46H458.86l-2.16,5.95H473l-2.35,6.47Z"/><path class="cls-2" d="M490,197.31c-1.91,0-3.67-.06-5.27-.18a29.88,29.88,0,0,1-4.33-.64,17.61,17.61,0,0,1-3.55-1.19l2.89-8A14.2,14.2,0,0,0,485,190a21.35,21.35,0,0,0,5.82.87,9.58,9.58,0,0,0,3.74-.66,3.75,3.75,0,0,0,2.14-2.25,1.37,1.37,0,0,0-.66-1.76,11,11,0,0,0-3-1.21q-1.95-.54-4.38-1.29a18.16,18.16,0,0,1-2.71-1.13A6.66,6.66,0,0,1,483.8,181a4.67,4.67,0,0,1-1.07-2.43,7.41,7.41,0,0,1,.53-3.52,12.51,12.51,0,0,1,2.38-3.93,16.47,16.47,0,0,1,4.05-3.33,21,21,0,0,1,5.65-2.27,28.65,28.65,0,0,1,7.12-.82,36.68,36.68,0,0,1,4.17.21,19,19,0,0,1,3.34.68,21.52,21.52,0,0,1,3,1.17L510,174.78a12.39,12.39,0,0,0-2.34-1.69,18.69,18.69,0,0,0-3-1.36,12.56,12.56,0,0,0-3.43-.65,14.69,14.69,0,0,0-3,.21,7.26,7.26,0,0,0-2.51.91,3.48,3.48,0,0,0-1.48,1.78,1.61,1.61,0,0,0,.28,1.85,5.25,5.25,0,0,0,2.23,1.13c1,.3,2.16.6,3.42.91a30.85,30.85,0,0,1,3.93,1.27,8.46,8.46,0,0,1,2.79,1.73,4.52,4.52,0,0,1,1.32,2.51,6.91,6.91,0,0,1-.5,3.58,13.21,13.21,0,0,1-3.66,5.34,18.73,18.73,0,0,1-6.18,3.68A22.7,22.7,0,0,1,490,197.31Z"/><path class="cls-2" d="M522.72,197.31c-1.92,0-3.67-.06-5.27-.18a29.88,29.88,0,0,1-4.33-.64,17.71,17.71,0,0,1-3.56-1.19l2.9-8a14.24,14.24,0,0,0,5.27,2.7,21.42,21.42,0,0,0,5.83.87,9.58,9.58,0,0,0,3.74-.66,3.7,3.7,0,0,0,2.13-2.25,1.36,1.36,0,0,0-.65-1.76,11,11,0,0,0-3-1.21q-1.95-.54-4.38-1.29a18.28,18.28,0,0,1-2.72-1.13,6.89,6.89,0,0,1-2.13-1.64,4.66,4.66,0,0,1-1.06-2.43A7.29,7.29,0,0,1,516,175a12.51,12.51,0,0,1,2.38-3.93,16.47,16.47,0,0,1,4.05-3.33,20.91,20.91,0,0,1,5.64-2.27,28.79,28.79,0,0,1,7.13-.82,36.68,36.68,0,0,1,4.17.21,19,19,0,0,1,3.34.68,21.52,21.52,0,0,1,3,1.17l-2.93,8.06a12.16,12.16,0,0,0-2.35-1.69,18.2,18.2,0,0,0-3-1.36,12.56,12.56,0,0,0-3.43-.65,14.59,14.59,0,0,0-3,.21,7.26,7.26,0,0,0-2.51.91A3.43,3.43,0,0,0,527,174a1.63,1.63,0,0,0,.27,1.85,5.32,5.32,0,0,0,2.23,1.13c1,.3,2.17.6,3.43.91a30.85,30.85,0,0,1,3.93,1.27,8.46,8.46,0,0,1,2.79,1.73,4.58,4.58,0,0,1,1.32,2.51,7,7,0,0,1-.5,3.58,13.31,13.31,0,0,1-3.66,5.34,18.78,18.78,0,0,1-6.19,3.68A22.64,22.64,0,0,1,522.72,197.31Z"/><polygon class="cls-3" points="367.45 147.62 379.9 147.62 356.7 93.09 345.71 93.09 322.51 147.62 330.23 147.62 334.65 147.62 359.93 147.62 355.44 136.6 339.15 136.6 351.05 107.4 367.45 147.62"/><polygon class="cls-3" points="484.47 147.62 496.93 147.62 473.72 93.09 462.74 93.09 439.53 147.62 447.25 147.62 451.68 147.62 476.95 147.62 472.46 136.6 456.17 136.6 468.08 107.4 484.47 147.62"/><polygon class="cls-3" points="612.71 147.62 625.17 147.62 601.96 93.09 590.98 93.09 567.77 147.62 575.5 147.62 579.92 147.62 605.19 147.62 600.7 136.6 584.41 136.6 596.32 107.4 612.71 147.62"/><polygon class="cls-3" points="546.58 93.48 532.35 116.37 518.12 93.48 505.28 93.48 505.28 147.62 517.04 147.62 517.04 112.5 528.94 130.58 535.6 130.58 547.67 112.27 547.67 147.62 559.42 147.62 559.42 93.48 546.58 93.48"/><path class="cls-3" d="M667.09,128.28a18.61,18.61,0,0,0,8.39-6.07q3.21-4.14,3.21-10.71v-.16q0-8.43-5.37-13.15t-15.05-4.71H626.1v10.75h31.17a10.93,10.93,0,0,1,6.88,1.93,6.9,6.9,0,0,1,2.47,5.8v.16a7.09,7.09,0,0,1-2.35,5.57c-1.58,1.39-3.83,2.08-6.77,2.08h-13v-8.51h-11v36.36h11.91V130.29h9.36l11.6,17.33h13.92Z"/><path class="cls-3" d="M421.77,128.28a18.61,18.61,0,0,0,8.39-6.07q3.21-4.14,3.21-10.71v-.16q0-8.43-5.37-13.15T413,93.48H380.78v10.75H412a10.93,10.93,0,0,1,6.88,1.93,6.9,6.9,0,0,1,2.47,5.8v.16a7.09,7.09,0,0,1-2.35,5.57c-1.58,1.39-3.83,2.08-6.77,2.08h-13v-8.51h-11v36.36h11.91V130.29h9.36l11.6,17.33H435Z"/><path class="cls-3" d="M284.47,93.47l5.13,12.23h13.19v22.67q0,4.72-1.94,6.84a6.84,6.84,0,0,1-5.33,2.13,9.86,9.86,0,0,1-5.23-1.43,21.57,21.57,0,0,1-4.68-4l-7.5,8.35a24.88,24.88,0,0,0,7.08,5.72,21.54,21.54,0,0,0,10.63,2.4,24.38,24.38,0,0,0,7.82-1.2,16,16,0,0,0,6.07-3.63,16.59,16.59,0,0,0,3.9-6.07,24,24,0,0,0,1.4-8.59V93.47Z"/><path class="cls-3" d="M248.09,141.74a94.86,94.86,0,0,1-146.6,79.5l43.23-6.12a72.43,72.43,0,0,0,8.51.5,73.63,73.63,0,0,0,66-106.27l18.55-10.71A94.54,94.54,0,0,1,248.09,141.74Z"/><path class="cls-3" d="M209.87,65.64l-37.44,5.29a73.8,73.8,0,0,0-57.35,8.12q-2.61,1.58-5.07,3.38a73.63,73.63,0,0,0-21.32,95L70.39,188A94.86,94.86,0,0,1,209.87,65.64Z"/><path class="cls-3" d="M198.71,124.2,28.35,222.56,175,201.81l-26.41-17.25a5.39,5.39,0,0,1-.9-8.29Z"/><path class="cls-1" d="M107.75,163.38,278.11,65,131.48,85.77,157.89,103a5.39,5.39,0,0,1,.9,8.29Z"/></svg>