<?xml version="1.0" encoding="utf-8"?>
<!-- Generator: Adobe Illustrator 26.0.1, SVG Export Plug-In . SVG Version: 6.00 Build 0)  -->
<svg version="1.1" id="Capa_1" xmlns="http://www.w3.org/2000/svg" xmlns:xlink="http://www.w3.org/1999/xlink" x="0px" y="0px"
	 viewBox="0 0 510.24 425.2" style="enable-background:new 0 0 510.24 425.2;" xml:space="preserve">
<style type="text/css">
	.st0{fill:#FF5100;}
	.st1{fill:#FFFFFF;}
	.st2{fill:#001B71;}
	.st3{fill:#636569;}
	.st4{fill:#868686;}
	.st5{fill:#575756;}
</style>
<g>
	<g>
		<path class="st1" d="M265.57,332.89h-7.29l-2.9,7.97h7.07c1.24,0,2.4-0.31,3.47-0.94c1.07-0.63,1.87-1.69,2.42-3.18
			c0.48-1.31,0.44-2.28-0.12-2.91C267.66,333.21,266.78,332.89,265.57,332.89z"/>
		<path class="st1" d="M231.3,333.16c-0.5-0.18-1.1-0.27-1.79-0.27h-6.03l-2.93,8.06h6.03c0.69,0,1.35-0.08,1.98-0.25
			c0.62-0.16,1.18-0.42,1.67-0.76c0.49-0.34,0.92-0.75,1.3-1.23c0.37-0.48,0.67-1.01,0.89-1.61c0.25-0.69,0.37-1.28,0.35-1.79
			c-0.02-0.51-0.14-0.95-0.37-1.32C232.16,333.62,231.8,333.34,231.3,333.16z"/>
		<path class="st1" d="M140.77,321.62c-3.43,0-6.54,2.21-7.93,5.65l-13.92,34.31h250.55c3.43,0,6.54-2.21,7.93-5.65l13.92-34.31
			H140.77z M202.37,326.72h10.8l-13.99,12.18l-2.95-6.34L202.37,326.72z M163.23,350.39l-2.25,6.18H135.5l10.85-29.85h25.49
			l-2.24,6.18h-15.51l-2.05,5.64h13.37l-2.24,6.18h-13.43l-2.07,5.68H163.23z M176.88,356.56h-10.69l13.98-11.95l2.87,6.18
			L176.88,356.56z M190.36,356.57l-13.87-29.85h12.39l13.87,29.85H190.36z M225.54,347.12h-7.24l-3.43,9.44h-9.92l10.85-29.85h17.16
			c4.31,0,7.43,0.79,9.36,2.37c1.93,1.58,2.27,4.07,1.04,7.47c-1.23,3.37-3.42,5.97-6.59,7.81
			C233.59,346.21,229.85,347.12,225.54,347.12z M273.04,343.34c-1.29,0.78-2.73,1.33-4.31,1.69l5.12,11.54h-12.72l-3.2-9.89h-4.66
			l-3.6,9.89h-9.92l10.85-29.85h18.42c4.24,0,7.3,0.79,9.17,2.37c1.87,1.58,2.22,4,1.04,7.25c-0.45,1.22-1.2,2.46-2.26,3.72
			C275.91,341.31,274.6,342.4,273.04,343.34z M305.09,350.39l-2.24,6.18h-25.49l10.85-29.85h25.49l-2.24,6.18h-15.51l-2.05,5.64
			h13.37l-2.24,6.18h-13.43l-2.07,5.68H305.09z M338.26,347.3c-0.69,1.91-1.86,3.61-3.5,5.1c-1.64,1.49-3.61,2.66-5.91,3.51
			c-2.3,0.85-4.82,1.28-7.56,1.28c-1.83,0-3.51-0.06-5.03-0.18c-1.53-0.12-2.91-0.32-4.14-0.6c-1.23-0.28-2.36-0.66-3.39-1.14
			l2.77-7.61c1.4,1.16,3.08,2.02,5.04,2.57c1.95,0.55,3.81,0.83,5.56,0.83c1.39,0,2.58-0.21,3.57-0.63
			c0.99-0.42,1.67-1.13,2.04-2.15c0.25-0.69,0.04-1.24-0.62-1.68c-0.66-0.43-1.62-0.82-2.87-1.16c-1.25-0.34-2.64-0.75-4.18-1.23
			c-0.91-0.3-1.78-0.66-2.6-1.07c-0.82-0.42-1.49-0.94-2.03-1.57c-0.54-0.63-0.88-1.4-1.02-2.33c-0.14-0.92,0.03-2.04,0.51-3.36
			c0.48-1.31,1.23-2.57,2.27-3.76c1.04-1.19,2.33-2.25,3.87-3.18c1.54-0.92,3.34-1.65,5.39-2.17c2.05-0.52,4.32-0.78,6.81-0.78
			c1.5,0,2.82,0.07,3.98,0.2c1.16,0.13,2.22,0.35,3.19,0.65c0.97,0.3,1.92,0.67,2.85,1.12l-2.8,7.7c-0.6-0.57-1.34-1.1-2.24-1.61
			c-0.89-0.51-1.86-0.94-2.9-1.3c-1.04-0.36-2.13-0.57-3.28-0.63c-0.98-0.03-1.92,0.04-2.84,0.2c-0.92,0.16-1.72,0.46-2.4,0.87
			c-0.68,0.42-1.15,0.98-1.41,1.7c-0.27,0.75-0.18,1.34,0.26,1.77c0.45,0.43,1.16,0.79,2.13,1.07c0.97,0.28,2.07,0.57,3.27,0.87
			c1.41,0.36,2.66,0.76,3.76,1.21c1.1,0.45,1.98,1,2.66,1.66c0.67,0.66,1.1,1.45,1.27,2.39
			C338.91,344.82,338.75,345.96,338.26,347.3z M371.76,335.67c-0.6-0.57-1.34-1.1-2.24-1.61c-0.89-0.51-1.86-0.94-2.9-1.3
			c-1.04-0.36-2.13-0.57-3.28-0.63c-0.98-0.03-1.92,0.04-2.84,0.2c-0.92,0.16-1.72,0.46-2.4,0.87c-0.68,0.42-1.15,0.98-1.41,1.7
			c-0.27,0.75-0.18,1.34,0.26,1.77c0.45,0.43,1.16,0.79,2.13,1.07c0.97,0.28,2.07,0.57,3.27,0.87c1.41,0.36,2.66,0.76,3.76,1.21
			c1.1,0.45,1.98,1,2.66,1.66c0.67,0.66,1.1,1.45,1.27,2.39c0.17,0.94,0.01,2.08-0.48,3.42c-0.69,1.91-1.86,3.61-3.5,5.1
			c-1.64,1.49-3.61,2.66-5.91,3.51c-2.3,0.85-4.82,1.28-7.56,1.28c-1.83,0-3.51-0.06-5.03-0.18c-1.53-0.12-2.91-0.32-4.14-0.6
			c-1.23-0.28-2.36-0.66-3.39-1.14l2.77-7.61c1.4,1.16,3.08,2.02,5.04,2.57c1.95,0.55,3.81,0.83,5.56,0.83
			c1.39,0,2.58-0.21,3.57-0.63c0.99-0.42,1.67-1.13,2.04-2.15c0.25-0.69,0.04-1.24-0.62-1.68c-0.66-0.43-1.62-0.82-2.87-1.16
			c-1.25-0.34-2.64-0.75-4.18-1.23c-0.91-0.3-1.78-0.66-2.6-1.07c-0.82-0.42-1.49-0.94-2.03-1.57c-0.54-0.63-0.88-1.4-1.02-2.33
			c-0.14-0.92,0.03-2.04,0.51-3.36c0.48-1.31,1.23-2.57,2.27-3.76c1.04-1.19,2.33-2.25,3.87-3.18c1.54-0.92,3.34-1.65,5.39-2.17
			c2.05-0.52,4.32-0.78,6.81-0.78c1.5,0,2.82,0.07,3.98,0.2c1.16,0.13,2.22,0.35,3.19,0.65c0.97,0.3,1.92,0.67,2.86,1.12
			L371.76,335.67z"/>
	</g>
	<g>
		<polygon class="st1" points="150.12,310.22 161.4,310.22 140.39,260.84 130.44,260.84 109.43,310.22 116.42,310.22 120.43,310.22 
			143.31,310.22 139.24,300.24 124.49,300.24 135.27,273.8 		"/>
		<polygon class="st1" points="260.85,310.22 272.13,310.22 251.12,260.84 241.17,260.84 220.16,310.22 227.15,310.22 
			231.16,310.22 254.04,310.22 249.98,300.24 235.23,300.24 246.01,273.8 		"/>
		<polygon class="st1" points="376.97,310.22 388.24,310.22 367.23,260.84 357.29,260.84 336.28,310.22 343.27,310.22 
			347.27,310.22 370.16,310.22 366.09,300.24 351.34,300.24 362.12,273.8 		"/>
		<polygon class="st1" points="317.09,261.19 304.2,281.92 291.32,261.19 279.69,261.19 279.69,310.22 290.34,310.22 290.34,278.42 
			301.12,294.79 307.15,294.79 318.07,278.21 318.07,310.22 328.71,310.22 328.71,261.19 		"/>
		<path class="st1" d="M426.2,292.71c3.13-1.17,5.66-3,7.6-5.5c1.94-2.5,2.91-5.73,2.91-9.7v-0.14c0-5.09-1.62-9.06-4.87-11.91
			c-3.25-2.85-7.79-4.27-13.62-4.27h-29.13v9.73h28.22c2.66,0,4.74,0.58,6.23,1.75c1.49,1.17,2.24,2.92,2.24,5.25v0.14
			c0,2.1-0.71,3.78-2.14,5.04c-1.43,1.26-3.47,1.89-6.13,1.89h-11.77v-7.71h-9.94v7.71v25.21h10.78v-15.69h8.47l10.5,15.69h12.61
			L426.2,292.71z"/>
		<path class="st1" d="M200.78,292.71c3.13-1.17,5.66-3,7.6-5.5c1.94-2.5,2.91-5.73,2.91-9.7v-0.14c0-5.09-1.62-9.06-4.87-11.91
			c-3.25-2.85-7.79-4.27-13.62-4.27h-29.13v9.73h28.22c2.66,0,4.74,0.58,6.23,1.75c1.49,1.17,2.24,2.92,2.24,5.25v0.14
			c0,2.1-0.71,3.78-2.14,5.04c-1.43,1.26-3.47,1.89-6.13,1.89h-11.77v-7.71h-9.94v7.71v25.21h10.78v-15.69h8.47l10.5,15.69h12.61
			L200.78,292.71z"/>
		<path class="st1" d="M77.82,261.19l4.64,11.07l11.94,0v20.52c0,2.85-0.58,4.91-1.75,6.2c-1.17,1.28-2.78,1.93-4.83,1.93
			c-1.73,0-3.3-0.43-4.73-1.3c-1.42-0.86-2.84-2.07-4.24-3.61l-6.79,7.56c1.68,2.01,3.82,3.74,6.41,5.18
			c2.59,1.45,5.8,2.17,9.63,2.17c2.57,0,4.93-0.36,7.07-1.09c2.15-0.72,3.98-1.82,5.5-3.29c1.52-1.47,2.7-3.3,3.54-5.5
			c0.84-2.19,1.26-4.79,1.26-7.77v-21.02v-0.56v-10.5H77.82z"/>
	</g>
	<g>
		<path class="st1" d="M340.78,149.28c0,47.3-38.35,85.66-85.66,85.66c-17.23,0-33.28-5.09-46.72-13.86l39.04-5.52
			c2.52,0.3,5.08,0.44,7.68,0.44c9.13,0,17.83-1.84,25.75-5.17c3.83-1.61,7.47-3.57,10.89-5.84c17.98-11.9,29.83-32.3,29.83-55.47
			c0-10.6-2.48-20.61-6.89-29.49l16.75-9.67C337.41,122.04,340.78,135.27,340.78,149.28z"/>
		<path class="st1" d="M306.27,80.56l-33.81,4.78c-5.52-1.49-11.34-2.29-17.34-2.29c-12.61,0-24.4,3.51-34.44,9.62
			c-1.57,0.95-3.1,1.96-4.58,3.04c-16.63,12.08-27.44,31.68-27.44,53.8c0,11.59,2.96,22.48,8.18,31.97l-16.52,9.54
			c-6.91-12.35-10.85-26.59-10.85-41.75c0-47.31,38.35-85.66,85.66-85.66C274.29,63.62,292,69.92,306.27,80.56z"/>
		<g>
			<g>
				<path class="st1" d="M296.19,133.45l-153.85,88.82l132.42-18.74l-23.85-15.58c-2.57-1.68-2.96-5.29-0.81-7.48L296.19,133.45z"/>
				<path class="st1" d="M214.05,168.83L367.9,80L235.48,98.74l23.85,15.58c2.57,1.68,2.96,5.29,0.81,7.48L214.05,168.83z"/>
			</g>
		</g>
	</g>
</g>
</svg>
