<?xml version="1.0" encoding="utf-8"?>
<!-- Generator: Adobe Illustrator 26.0.1, SVG Export Plug-In . SVG Version: 6.00 Build 0)  -->
<svg version="1.1" id="Capa_1" xmlns="http://www.w3.org/2000/svg" xmlns:xlink="http://www.w3.org/1999/xlink" x="0px" y="0px"
	 viewBox="0 0 708.66 283.46" style="enable-background:new 0 0 708.66 283.46;" xml:space="preserve">
<style type="text/css">
	.st0{fill:#FF5100;}
	.st1{fill:#FFFFFF;}
	.st2{fill:#001B71;}
	.st3{fill:#636569;}
	.st4{fill:#868686;}
	.st5{fill:#575756;}
</style>
<g>
	<g>
		<path class="st0" d="M540.39,201.9H278.11l14.57-35.91c1.46-3.6,4.71-5.92,8.3-5.92h262.28l-14.57,35.91
			C547.23,199.58,543.98,201.9,540.39,201.9z"/>
		<g>
			<path class="st1" d="M295.47,196.66l11.36-31.25h26.68l-2.35,6.47h-16.24l-2.15,5.9h14l-2.35,6.47h-14.06l-2.16,5.95h16.3
				l-2.35,6.46H295.47z"/>
			<polygon class="st1" points="345.24,190.62 338.79,196.65 327.6,196.65 342.23,184.14 			"/>
			<polygon class="st1" points="365.87,196.66 352.9,196.66 338.38,165.41 351.35,165.41 			"/>
			<polygon class="st1" points="376.77,165.41 362.13,178.15 359.04,171.52 365.47,165.41 			"/>
			<path class="st1" d="M382.15,186.77l-3.59,9.89h-10.39l11.36-31.25h17.96c4.51,0,7.78,0.83,9.8,2.48
				c2.02,1.66,2.38,4.26,1.09,7.82c-1.28,3.53-3.58,6.25-6.9,8.18c-3.32,1.92-7.23,2.88-11.75,2.88H382.15z M384.5,180.31h6.31
				c0.73,0,1.42-0.09,2.07-0.26c0.65-0.17,1.24-0.44,1.75-0.8c0.51-0.36,0.97-0.79,1.36-1.29c0.39-0.5,0.7-1.06,0.93-1.69
				c0.26-0.72,0.38-1.34,0.37-1.87c-0.02-0.53-0.15-0.99-0.39-1.38c-0.24-0.39-0.62-0.68-1.15-0.87c-0.52-0.19-1.15-0.28-1.88-0.28
				h-6.31L384.5,180.31z"/>
			<path class="st1" d="M444.84,167.89c-1.96-1.66-5.16-2.48-9.6-2.48h-19.28l-11.36,31.25h10.39l3.76-10.35h4.88l3.35,10.35h13.31
				l-5.36-12.07c1.65-0.38,3.16-0.96,4.51-1.77c1.64-0.98,3.01-2.13,4.12-3.44c1.11-1.31,1.89-2.61,2.36-3.89
				C447.16,172.08,446.8,169.55,444.84,167.89z M432,179.23c-1.12,0.66-2.33,0.98-3.63,0.98h-7.4l3.03-8.34h7.63
				c1.26,0,2.18,0.33,2.77,0.98c0.58,0.66,0.63,1.67,0.13,3.04C433.96,177.47,433.11,178.57,432,179.23z"/>
			<path class="st1" d="M443.96,196.66l11.36-31.25h26.68l-2.35,6.47h-16.24l-2.15,5.9h14l-2.35,6.47h-14.06l-2.16,5.95H473
				l-2.35,6.46H443.96z"/>
			<path class="st1" d="M489.96,197.31c-1.91,0-3.67-0.06-5.27-0.19c-1.6-0.13-3.04-0.34-4.33-0.63c-1.29-0.3-2.47-0.69-3.55-1.2
				l2.9-7.96c1.47,1.22,3.23,2.12,5.28,2.69c2.05,0.58,3.99,0.87,5.82,0.87c1.45,0,2.7-0.22,3.74-0.66
				c1.04-0.44,1.75-1.19,2.14-2.25c0.26-0.72,0.04-1.3-0.65-1.76c-0.7-0.45-1.7-0.86-3-1.22c-1.3-0.36-2.76-0.79-4.38-1.29
				c-0.96-0.31-1.86-0.69-2.72-1.12c-0.86-0.44-1.56-0.98-2.13-1.64c-0.56-0.66-0.92-1.47-1.06-2.44c-0.15-0.97,0.03-2.14,0.53-3.51
				c0.5-1.37,1.29-2.69,2.38-3.94c1.09-1.25,2.43-2.36,4.05-3.33c1.61-0.97,3.5-1.72,5.65-2.27c2.15-0.55,4.52-0.82,7.13-0.82
				c1.57,0,2.96,0.07,4.17,0.21c1.21,0.14,2.32,0.37,3.34,0.68c1.01,0.31,2.01,0.7,2.99,1.17l-2.93,8.06
				c-0.62-0.59-1.41-1.16-2.34-1.69c-0.94-0.53-1.95-0.98-3.03-1.36c-1.09-0.38-2.23-0.59-3.43-0.66c-1.02-0.03-2.01,0.04-2.97,0.21
				c-0.96,0.17-1.8,0.48-2.51,0.91c-0.71,0.44-1.21,1.03-1.48,1.78c-0.28,0.78-0.19,1.4,0.27,1.85c0.47,0.45,1.21,0.83,2.23,1.12
				c1.02,0.3,2.16,0.6,3.43,0.91c1.47,0.38,2.78,0.8,3.93,1.26c1.15,0.47,2.08,1.05,2.78,1.73c0.71,0.69,1.15,1.52,1.33,2.51
				c0.18,0.98,0.01,2.18-0.5,3.58c-0.73,2-1.95,3.78-3.66,5.34c-1.71,1.56-3.78,2.79-6.19,3.68
				C495.47,196.87,492.83,197.31,489.96,197.31z"/>
			<path class="st1" d="M522.72,197.31c-1.91,0-3.67-0.06-5.27-0.19c-1.6-0.13-3.04-0.34-4.33-0.63c-1.29-0.3-2.47-0.69-3.55-1.2
				l2.9-7.96c1.47,1.22,3.23,2.12,5.28,2.69c2.05,0.58,3.99,0.87,5.82,0.87c1.45,0,2.7-0.22,3.74-0.66
				c1.04-0.44,1.75-1.19,2.14-2.25c0.26-0.72,0.04-1.3-0.65-1.76c-0.7-0.45-1.7-0.86-3-1.22c-1.3-0.36-2.76-0.79-4.38-1.29
				c-0.96-0.31-1.86-0.69-2.72-1.12c-0.86-0.44-1.56-0.98-2.13-1.64c-0.56-0.66-0.92-1.47-1.06-2.44c-0.15-0.97,0.03-2.14,0.53-3.51
				c0.5-1.37,1.29-2.69,2.38-3.94c1.09-1.25,2.43-2.36,4.05-3.33c1.61-0.97,3.5-1.72,5.65-2.27c2.15-0.55,4.52-0.82,7.13-0.82
				c1.57,0,2.96,0.07,4.17,0.21c1.21,0.14,2.32,0.37,3.34,0.68c1.01,0.31,2.01,0.7,2.99,1.17l-2.93,8.06
				c-0.62-0.59-1.41-1.16-2.34-1.69c-0.94-0.53-1.95-0.98-3.03-1.36c-1.09-0.38-2.23-0.59-3.43-0.66c-1.02-0.03-2.01,0.04-2.97,0.21
				c-0.96,0.17-1.8,0.48-2.51,0.91c-0.71,0.44-1.21,1.03-1.48,1.78c-0.28,0.78-0.19,1.4,0.27,1.85c0.47,0.45,1.21,0.83,2.23,1.12
				c1.02,0.3,2.16,0.6,3.43,0.91c1.47,0.38,2.78,0.8,3.93,1.26c1.15,0.47,2.08,1.05,2.78,1.73c0.71,0.69,1.15,1.52,1.33,2.51
				c0.18,0.98,0.01,2.18-0.5,3.58c-0.73,2-1.95,3.78-3.66,5.34c-1.71,1.56-3.78,2.79-6.19,3.68
				C528.22,196.87,525.59,197.31,522.72,197.31z"/>
		</g>
	</g>
	<g>
		<polygon class="st2" points="367.45,147.62 379.9,147.62 356.7,93.09 345.71,93.09 322.51,147.62 330.23,147.62 334.65,147.62 
			359.93,147.62 355.44,136.6 339.15,136.6 351.05,107.4 		"/>
		<polygon class="st2" points="484.47,147.62 496.93,147.62 473.72,93.09 462.74,93.09 439.53,147.62 447.26,147.62 451.68,147.62 
			476.95,147.62 472.46,136.6 456.17,136.6 468.08,107.4 		"/>
		<polygon class="st2" points="612.71,147.62 625.17,147.62 601.96,93.09 590.98,93.09 567.78,147.62 575.5,147.62 579.92,147.62 
			605.19,147.62 600.7,136.6 584.41,136.6 596.32,107.4 		"/>
		<polygon class="st2" points="546.58,93.48 532.35,116.37 518.12,93.48 505.28,93.48 505.28,147.62 517.04,147.62 517.04,112.5 
			528.94,130.58 535.6,130.58 547.67,112.27 547.67,147.62 559.42,147.62 559.42,93.48 		"/>
		<path class="st2" d="M667.09,128.28c3.45-1.29,6.25-3.31,8.39-6.07c2.14-2.76,3.21-6.33,3.21-10.71v-0.15
			c0-5.62-1.79-10-5.38-13.15c-3.58-3.14-8.6-4.72-15.04-4.72H626.1v10.75h31.17c2.94,0,5.23,0.65,6.88,1.93
			c1.65,1.29,2.47,3.22,2.47,5.8v0.15c0,2.32-0.79,4.18-2.36,5.57c-1.57,1.39-3.83,2.09-6.77,2.09H644.5v-8.51h-10.98v8.51v27.85
			h11.91v-17.33h9.36l11.6,17.33h13.92L667.09,128.28z"/>
		<path class="st2" d="M421.77,128.28c3.45-1.29,6.25-3.31,8.39-6.07c2.14-2.76,3.21-6.33,3.21-10.71v-0.15
			c0-5.62-1.79-10-5.38-13.15c-3.58-3.14-8.6-4.72-15.04-4.72h-32.17v10.75h31.17c2.94,0,5.23,0.65,6.88,1.93
			c1.65,1.29,2.47,3.22,2.47,5.8v0.15c0,2.32-0.79,4.18-2.36,5.57c-1.57,1.39-3.83,2.09-6.77,2.09h-12.99v-8.51H388.2v8.51v27.85
			h11.91v-17.33h9.36l11.6,17.33H435L421.77,128.28z"/>
		<path class="st2" d="M284.47,93.47l5.13,12.23l13.19-0.01v22.67c0,3.15-0.65,5.43-1.93,6.85c-1.29,1.42-3.07,2.13-5.34,2.13
			c-1.91,0-3.65-0.48-5.22-1.43c-1.57-0.95-3.13-2.28-4.68-3.98l-7.5,8.35c1.86,2.22,4.22,4.13,7.08,5.72
			c2.86,1.6,6.41,2.4,10.64,2.4c2.84,0,5.44-0.4,7.81-1.2c2.37-0.8,4.4-2.01,6.07-3.64c1.67-1.62,2.98-3.65,3.91-6.07
			c0.93-2.42,1.39-5.28,1.39-8.59v-23.21v-0.62v-11.6H284.47z"/>
	</g>
	<path class="st2" d="M248.09,141.74c0,52.38-42.47,94.85-94.86,94.85c-19.08,0-36.85-5.63-51.74-15.35l43.23-6.12
		c2.79,0.33,5.63,0.49,8.5,0.49c10.11,0,19.75-2.04,28.51-5.72c4.24-1.78,8.27-3.95,12.06-6.47c19.91-13.17,33.04-35.76,33.04-61.42
		c0-11.73-2.75-22.82-7.63-32.66l18.55-10.7C244.36,111.57,248.09,126.22,248.09,141.74z"/>
	<path class="st2" d="M209.87,65.64l-37.44,5.29c-6.12-1.65-12.56-2.53-19.2-2.53c-13.96,0-27.02,3.89-38.14,10.65
		c-1.74,1.05-3.43,2.17-5.07,3.37c-18.41,13.38-30.39,35.08-30.39,59.58c0,12.83,3.28,24.9,9.06,35.4l-18.3,10.56
		c-7.65-13.67-12.01-29.44-12.01-46.23c0-52.39,42.46-94.86,94.85-94.86C174.46,46.88,194.07,53.85,209.87,65.64z"/>
	<g>
		<g>
			<path class="st2" d="M198.71,124.2L28.35,222.56l146.63-20.75l-26.41-17.25c-2.85-1.86-3.28-5.86-0.9-8.29L198.71,124.2z"/>
			<path class="st0" d="M107.75,163.38l170.36-98.36L131.48,85.77l26.41,17.25c2.85,1.86,3.28,5.86,0.9,8.29L107.75,163.38z"/>
		</g>
	</g>
</g>
</svg>
