<?xml version="1.0" encoding="utf-8"?>
<!-- Generator: Adobe Illustrator 26.0.1, SVG Export Plug-In . SVG Version: 6.00 Build 0)  -->
<svg version="1.1" id="Capa_1" xmlns="http://www.w3.org/2000/svg" xmlns:xlink="http://www.w3.org/1999/xlink" x="0px" y="0px"
	 viewBox="0 0 510.24 425.2" style="enable-background:new 0 0 510.24 425.2;" xml:space="preserve">
<style type="text/css">
	.st0{fill:#FF5100;}
	.st1{fill:#FFFFFF;}
	.st2{fill:#001B71;}
	.st3{fill:#636569;}
	.st4{fill:#868686;}
	.st5{fill:#575756;}
</style>
<g>
	<path class="st0" d="M416.6,212.61c0,89.17-72.3,161.47-161.49,161.47c-32.49,0-62.74-9.59-88.07-26.13l73.6-10.41
		c4.75,0.56,9.58,0.84,14.48,0.84c17.2,0,33.62-3.47,48.54-9.74c7.22-3.03,14.08-6.73,20.54-11.01
		c33.89-22.43,56.24-60.88,56.24-104.56c0-19.97-4.67-38.85-12.99-55.6l31.58-18.22C410.25,161.25,416.6,186.19,416.6,212.61z"/>
	<path class="st0" d="M351.55,83.06l-63.74,9.01c-10.41-2.82-21.38-4.31-32.69-4.31c-23.77,0-45.99,6.62-64.93,18.13
		c-2.97,1.78-5.85,3.7-8.63,5.74c-31.35,22.78-51.73,59.73-51.73,101.43c0,21.85,5.59,42.38,15.42,60.26l-31.15,17.98
		c-13.02-23.28-20.45-50.12-20.45-78.7c0-89.19,72.29-161.49,161.47-161.49C291.26,51.12,324.65,62.99,351.55,83.06z"/>
	<g>
		<g>
			<path class="st0" d="M332.54,182.76L42.52,350.21l249.62-35.33l-44.96-29.37c-4.85-3.17-5.59-9.97-1.53-14.11L332.54,182.76z"/>
			<path class="st0" d="M177.69,249.44L467.72,82l-249.62,35.33l44.96,29.37c4.85,3.17,5.59,9.97,1.53,14.11L177.69,249.44z"/>
		</g>
	</g>
</g>
</svg>
