<svg id="Capa_1" data-name="Capa 1" xmlns="http://www.w3.org/2000/svg" viewBox="0 0 708.66 283.46"><defs><style>.cls-1{fill:#fff;}</style></defs><path class="cls-1" d="M431.63,171.87H424l-3,8.34h7.4a7,7,0,0,0,3.63-1,6,6,0,0,0,2.52-3.33c.5-1.37.46-2.39-.12-3A3.53,3.53,0,0,0,431.63,171.87Z"/><path class="cls-1" d="M395.75,172.16a5.5,5.5,0,0,0-1.88-.29h-6.31l-3.06,8.44h6.31a8.21,8.21,0,0,0,2.07-.26,5.29,5.29,0,0,0,1.75-.8A5.94,5.94,0,0,0,396,178a6.09,6.09,0,0,0,.93-1.68,5.32,5.32,0,0,0,.37-1.88,2.79,2.79,0,0,0-.39-1.38A2.1,2.1,0,0,0,395.75,172.16Z"/><path class="cls-1" d="M301,160.07a9.09,9.09,0,0,0-8.3,5.92L278.11,201.9H540.39a9.09,9.09,0,0,0,8.3-5.92l14.57-35.91Zm64.49,5.34h11.3l-14.64,12.74L359,171.52Zm-41,24.78-2.35,6.47H295.47l11.36-31.25h26.68l-2.35,6.46H314.92l-2.15,5.91h14l-2.35,6.46H310.37l-2.17,5.95Zm14.29,6.46H327.6l14.63-12.51,3,6.48Zm14.11,0-14.52-31.25h13l14.52,31.25Zm36.82-9.89h-7.57l-3.6,9.89H368.17l11.36-31.25h18q6.76,0,9.79,2.48t1.09,7.83a15.16,15.16,0,0,1-6.9,8.17A23.07,23.07,0,0,1,389.72,186.77Zm49.72-4a14.9,14.9,0,0,1-4.51,1.77l5.36,12.08H427l-3.35-10.36h-4.88L415,196.66H404.6L416,165.41h19.28q6.66,0,9.6,2.48t1.08,7.59a12.83,12.83,0,0,1-2.36,3.89A16.12,16.12,0,0,1,439.44,182.81ZM473,190.19l-2.35,6.47H444l11.36-31.25H482l-2.35,6.46H463.42l-2.15,5.91h14l-2.35,6.46H458.86l-2.16,5.95ZM507.72,187a13.21,13.21,0,0,1-3.66,5.34,18.73,18.73,0,0,1-6.18,3.68,22.7,22.7,0,0,1-7.92,1.33c-1.91,0-3.67-.06-5.27-.18a29.88,29.88,0,0,1-4.33-.64,17.61,17.61,0,0,1-3.55-1.19l2.89-8A14.34,14.34,0,0,0,485,190a21.35,21.35,0,0,0,5.82.87,9.58,9.58,0,0,0,3.74-.66,3.75,3.75,0,0,0,2.14-2.25,1.37,1.37,0,0,0-.66-1.76,11,11,0,0,0-3-1.21q-1.95-.54-4.38-1.29a18.16,18.16,0,0,1-2.71-1.13A6.66,6.66,0,0,1,483.8,181a4.67,4.67,0,0,1-1.07-2.43,7.41,7.41,0,0,1,.53-3.52,12.51,12.51,0,0,1,2.38-3.93,16.47,16.47,0,0,1,4.05-3.33,21,21,0,0,1,5.65-2.27,28.65,28.65,0,0,1,7.12-.82,36.68,36.68,0,0,1,4.17.21,19,19,0,0,1,3.34.68,21.52,21.52,0,0,1,3,1.17L510,174.78a12.39,12.39,0,0,0-2.34-1.69,18.69,18.69,0,0,0-3-1.36,12.56,12.56,0,0,0-3.43-.65,14.69,14.69,0,0,0-3,.21,7.26,7.26,0,0,0-2.51.91,3.48,3.48,0,0,0-1.48,1.78,1.61,1.61,0,0,0,.28,1.85,5.25,5.25,0,0,0,2.23,1.13c1,.3,2.16.6,3.42.91a30.34,30.34,0,0,1,3.93,1.27,8.46,8.46,0,0,1,2.79,1.73,4.52,4.52,0,0,1,1.32,2.51A6.91,6.91,0,0,1,507.72,187Zm35.07-12.18a12.16,12.16,0,0,0-2.35-1.69,18.2,18.2,0,0,0-3-1.36,12.56,12.56,0,0,0-3.43-.65,14.59,14.59,0,0,0-3,.21,7.26,7.26,0,0,0-2.51.91A3.43,3.43,0,0,0,527,174a1.63,1.63,0,0,0,.27,1.85,5.32,5.32,0,0,0,2.23,1.13c1,.3,2.17.6,3.43.91a30.85,30.85,0,0,1,3.93,1.27,8.46,8.46,0,0,1,2.79,1.73,4.58,4.58,0,0,1,1.32,2.51,7,7,0,0,1-.5,3.58,13.31,13.31,0,0,1-3.66,5.34,18.78,18.78,0,0,1-6.19,3.68,22.64,22.64,0,0,1-7.91,1.33c-1.92,0-3.67-.06-5.27-.18a29.88,29.88,0,0,1-4.33-.64,17.71,17.71,0,0,1-3.56-1.19l2.9-8a14.37,14.37,0,0,0,5.27,2.69,21.42,21.42,0,0,0,5.83.87,9.58,9.58,0,0,0,3.74-.66,3.7,3.7,0,0,0,2.13-2.25,1.36,1.36,0,0,0-.65-1.76,11,11,0,0,0-3-1.21q-1.95-.54-4.38-1.29a18.28,18.28,0,0,1-2.72-1.13,6.89,6.89,0,0,1-2.13-1.64,4.66,4.66,0,0,1-1.06-2.43A7.29,7.29,0,0,1,516,175a12.51,12.51,0,0,1,2.38-3.93,16.47,16.47,0,0,1,4.05-3.33,20.91,20.91,0,0,1,5.64-2.27,28.79,28.79,0,0,1,7.13-.82,36.68,36.68,0,0,1,4.17.21,19,19,0,0,1,3.34.68,21.52,21.52,0,0,1,3,1.17Z"/><polygon class="cls-1" points="367.45 147.62 379.9 147.62 356.7 93.09 345.71 93.09 322.51 147.62 330.23 147.62 334.65 147.62 359.93 147.62 355.44 136.6 339.15 136.6 351.05 107.4 367.45 147.62"/><polygon class="cls-1" points="484.47 147.62 496.93 147.62 473.72 93.09 462.74 93.09 439.53 147.62 447.25 147.62 451.68 147.62 476.95 147.62 472.46 136.6 456.17 136.6 468.08 107.4 484.47 147.62"/><polygon class="cls-1" points="612.71 147.62 625.17 147.62 601.96 93.09 590.98 93.09 567.77 147.62 575.5 147.62 579.92 147.62 605.19 147.62 600.7 136.6 584.41 136.6 596.32 107.4 612.71 147.62"/><polygon class="cls-1" points="546.58 93.48 532.35 116.37 518.12 93.48 505.28 93.48 505.28 147.62 517.04 147.62 517.04 112.5 528.94 130.58 535.6 130.58 547.67 112.27 547.67 147.62 559.42 147.62 559.42 93.48 546.58 93.48"/><path class="cls-1" d="M667.09,128.28a18.61,18.61,0,0,0,8.39-6.07q3.21-4.14,3.21-10.71v-.16q0-8.43-5.37-13.15t-15.05-4.71H626.1v10.75h31.17a10.93,10.93,0,0,1,6.88,1.93,6.9,6.9,0,0,1,2.47,5.8v.16a7.09,7.09,0,0,1-2.35,5.57c-1.58,1.39-3.83,2.08-6.77,2.08h-13v-8.51h-11v36.36h11.91V130.29h9.36l11.6,17.33h13.92Z"/><path class="cls-1" d="M421.77,128.28a18.61,18.61,0,0,0,8.39-6.07q3.21-4.14,3.21-10.71v-.16q0-8.43-5.37-13.15T413,93.48H380.78v10.75H412a10.93,10.93,0,0,1,6.88,1.93,6.9,6.9,0,0,1,2.47,5.8v.16a7.09,7.09,0,0,1-2.35,5.57c-1.58,1.39-3.83,2.08-6.77,2.08h-13v-8.51h-11v36.36h11.91V130.29h9.36l11.6,17.33H435Z"/><path class="cls-1" d="M284.47,93.47l5.13,12.23h13.19v22.67q0,4.72-1.94,6.84a6.84,6.84,0,0,1-5.33,2.13,9.86,9.86,0,0,1-5.23-1.43,21.57,21.57,0,0,1-4.68-4l-7.5,8.35a24.88,24.88,0,0,0,7.08,5.72,21.54,21.54,0,0,0,10.63,2.4,24.38,24.38,0,0,0,7.82-1.2,16,16,0,0,0,6.07-3.63,16.59,16.59,0,0,0,3.9-6.07,24,24,0,0,0,1.4-8.59V93.47Z"/><path class="cls-1" d="M248.09,141.74a94.86,94.86,0,0,1-146.6,79.5l43.23-6.12a72.43,72.43,0,0,0,8.51.5,73.63,73.63,0,0,0,66-106.27l18.55-10.71A94.54,94.54,0,0,1,248.09,141.74Z"/><path class="cls-1" d="M209.87,65.64l-37.44,5.29a73.8,73.8,0,0,0-57.35,8.12q-2.61,1.58-5.07,3.38a73.63,73.63,0,0,0-21.32,95L70.39,188A94.86,94.86,0,0,1,209.87,65.64Z"/><path class="cls-1" d="M198.71,124.2,28.35,222.56,175,201.81l-26.41-17.25a5.39,5.39,0,0,1-.9-8.29Z"/><path class="cls-1" d="M107.75,163.38,278.11,65,131.48,85.77,157.89,103a5.39,5.39,0,0,1,.9,8.29Z"/><path class="cls-1" d="M291.19,230h-2.33l-1.27-3h-5.93l-1.29,3h-2.26l5.52-12.63h2Zm-6.57-10-2.15,5h4.31Z"/><path class="cls-1" d="M292.86,230V216.89h2.19V230Z"/><path class="cls-1" d="M306.89,227l1.94-6.48H311l-3.1,9.53H306l-2.12-6.47L301.71,230h-1.93l-3.07-9.53h2.22l1.9,6.48,2.1-6.52h1.85Z"/><path class="cls-1" d="M318,230V228.8a3.8,3.8,0,0,1-1.24,1,3.91,3.91,0,0,1-1.82.4,4.47,4.47,0,0,1-1.29-.19,3.12,3.12,0,0,1-1.07-.56,2.75,2.75,0,0,1-.74-.91,2.84,2.84,0,0,1-.27-1.26v0a3,3,0,0,1,.28-1.34,2.55,2.55,0,0,1,.8-1,3.72,3.72,0,0,1,1.22-.57,6.16,6.16,0,0,1,1.53-.19,7.84,7.84,0,0,1,2.62.4v-.24a1.89,1.89,0,0,0-.6-1.5,2.55,2.55,0,0,0-1.73-.52,5.58,5.58,0,0,0-1.43.16,9.63,9.63,0,0,0-1.28.43l-.59-1.74a9.65,9.65,0,0,1,1.61-.57,8.16,8.16,0,0,1,2-.22,4.21,4.21,0,0,1,3.14,1,4.05,4.05,0,0,1,1,3V230Zm.05-4a6.11,6.11,0,0,0-1-.26,5.79,5.79,0,0,0-1.19-.11,2.8,2.8,0,0,0-1.6.39,1.3,1.3,0,0,0-.57,1.13v0a1.17,1.17,0,0,0,.53,1,2.23,2.23,0,0,0,1.29.36,3.18,3.18,0,0,0,1-.15,2.61,2.61,0,0,0,.8-.4,1.9,1.9,0,0,0,.53-.63,1.79,1.79,0,0,0,.18-.81Z"/><path class="cls-1" d="M327.07,230.24a7.9,7.9,0,0,1-.59,1.23,3.34,3.34,0,0,1-.68.82,2.62,2.62,0,0,1-.83.46,3.54,3.54,0,0,1-1,.14,4.45,4.45,0,0,1-1.21-.15,5.76,5.76,0,0,1-1-.43l.73-1.62a5.45,5.45,0,0,0,.62.26,2.39,2.39,0,0,0,.66.09,1.21,1.21,0,0,0,.77-.23,2.12,2.12,0,0,0,.57-.86l-3.94-9.44h2.31l2.69,7,2.45-7h2.26Z"/><path class="cls-1" d="M338.46,228.48a2.38,2.38,0,0,1-.74.92,3.37,3.37,0,0,1-1.12.56,4.75,4.75,0,0,1-1.38.19,6.36,6.36,0,0,1-2.07-.36,6.45,6.45,0,0,1-1.94-1.06l1-1.47a6,6,0,0,0,1.57.87,4.33,4.33,0,0,0,1.53.3,1.81,1.81,0,0,0,1.09-.28.86.86,0,0,0,.38-.74v0a.68.68,0,0,0-.17-.47,1.53,1.53,0,0,0-.46-.34,3.21,3.21,0,0,0-.68-.27l-.8-.25c-.35-.1-.7-.22-1.05-.35a3.76,3.76,0,0,1-.95-.51,2.59,2.59,0,0,1-.69-.78,2.17,2.17,0,0,1-.27-1.13v0a2.78,2.78,0,0,1,.26-1.2,2.67,2.67,0,0,1,.72-.91,3.15,3.15,0,0,1,1.07-.58,4.44,4.44,0,0,1,1.32-.19,6,6,0,0,1,1.81.28,6.58,6.58,0,0,1,1.67.79l-.86,1.54a7.81,7.81,0,0,0-1.38-.65,4,4,0,0,0-1.29-.24,1.57,1.57,0,0,0-1,.27.81.81,0,0,0-.35.68v0a.6.6,0,0,0,.18.44,1.64,1.64,0,0,0,.48.34,5,5,0,0,0,.68.29l.79.26c.35.11.7.23,1,.37a4.49,4.49,0,0,1,.94.53,2.62,2.62,0,0,1,.69.76,2.11,2.11,0,0,1,.27,1.1v0A2.94,2.94,0,0,1,338.46,228.48Z"/><path class="cls-1" d="M354.83,220.77a3.56,3.56,0,0,1,1.86-.46,3.14,3.14,0,0,1,2.43.94,3.77,3.77,0,0,1,.88,2.68v6h-2.18v-5.36a2.61,2.61,0,0,0-.5-1.72,1.78,1.78,0,0,0-1.41-.59,1.92,1.92,0,0,0-1.46.6,2.47,2.47,0,0,0-.56,1.74V230h-2.18v-5.38a2.57,2.57,0,0,0-.5-1.7,1.78,1.78,0,0,0-1.41-.59,1.86,1.86,0,0,0-1.47.63,2.55,2.55,0,0,0-.55,1.73V230H345.6v-9.46h2.18V222a6.15,6.15,0,0,1,.5-.62,3.49,3.49,0,0,1,.62-.52,2.87,2.87,0,0,1,.79-.37,3.31,3.31,0,0,1,1-.14,3,3,0,0,1,2.81,1.68A4.74,4.74,0,0,1,354.83,220.77Z"/><path class="cls-1" d="M371.44,227.16a4.77,4.77,0,0,1-1.05,1.56,5,5,0,0,1-1.61,1.07,5.16,5.16,0,0,1-2,.39,5.09,5.09,0,0,1-2-.38,4.87,4.87,0,0,1-3-4.53,4.78,4.78,0,0,1,.39-1.92,5,5,0,0,1,1.05-1.58,5,5,0,0,1,3.61-1.46,5.16,5.16,0,0,1,2,.39,4.89,4.89,0,0,1,1.6,1.05,5,5,0,0,1,1.42,3.49A4.78,4.78,0,0,1,371.44,227.16Zm-2-3.07a2.93,2.93,0,0,0-.6-1,2.54,2.54,0,0,0-.91-.67,2.74,2.74,0,0,0-1.16-.24,2.78,2.78,0,0,0-1.17.24,2.69,2.69,0,0,0-.9.66,2.77,2.77,0,0,0-.57.95,3.52,3.52,0,0,0-.19,1.18,3.39,3.39,0,0,0,.21,1.19,2.85,2.85,0,0,0,1.51,1.63,2.71,2.71,0,0,0,1.14.24,2.84,2.84,0,0,0,1.19-.24,2.81,2.81,0,0,0,.9-.65,2.91,2.91,0,0,0,.57-1,3.52,3.52,0,0,0,.19-1.18A3.33,3.33,0,0,0,369.43,224.09Z"/><path class="cls-1" d="M379.68,220.51H382L378.08,230h-1.95l-3.89-9.53h2.33l2.55,7Z"/><path class="cls-1" d="M383.48,219.06V217h2.34v2.06Zm.09,10.91v-9.46h2.18V230Z"/><path class="cls-1" d="M390.39,230h-2.18v-9.46h2.18V222a6.51,6.51,0,0,1,.51-.64,3.44,3.44,0,0,1,1.45-.9,3.33,3.33,0,0,1,1-.14,3.17,3.17,0,0,1,2.49,1,3.85,3.85,0,0,1,.87,2.65v6h-2.18v-5.36a2.52,2.52,0,0,0-.53-1.71,1.86,1.86,0,0,0-1.48-.6,2,2,0,0,0-1.53.62,2.39,2.39,0,0,0-.59,1.72Z"/><path class="cls-1" d="M406.93,231.71a5.55,5.55,0,0,1-3.76,1.16,7.92,7.92,0,0,1-4.23-1.13l.81-1.63a7.25,7.25,0,0,0,1.57.74,5.76,5.76,0,0,0,1.8.27,3.12,3.12,0,0,0,2.22-.74,2.89,2.89,0,0,0,.77-2.18v-.74a5.34,5.34,0,0,1-1.38,1.27,3.71,3.71,0,0,1-2,.49,4.44,4.44,0,0,1-1.62-.3,4.2,4.2,0,0,1-1.37-.87,4.25,4.25,0,0,1-1-1.4,5.09,5.09,0,0,1,0-3.76,4.36,4.36,0,0,1,1-1.4,4.14,4.14,0,0,1,1.38-.87,4.27,4.27,0,0,1,1.61-.31,3.72,3.72,0,0,1,2,.48,5.46,5.46,0,0,1,1.33,1.15v-1.43h2.17V228A4.64,4.64,0,0,1,406.93,231.71Zm-1-8a2.43,2.43,0,0,0-.6-.83,2.69,2.69,0,0,0-.88-.53,3.21,3.21,0,0,0-1.07-.18,3,3,0,0,0-1.06.18,2.77,2.77,0,0,0-.85.53,2.28,2.28,0,0,0-.57.82,2.61,2.61,0,0,0-.21,1.06,2.47,2.47,0,0,0,.22,1.07,2.56,2.56,0,0,0,.57.83,2.4,2.4,0,0,0,.85.53,2.84,2.84,0,0,0,1.05.19,3,3,0,0,0,1.07-.19,2.53,2.53,0,0,0,.88-.53,2.6,2.6,0,0,0,.6-.82,2.43,2.43,0,0,0,.23-1.06A2.5,2.5,0,0,0,405.9,223.7Z"/><path class="cls-1" d="M415.66,219.06V217H418v2.06Zm.09,10.91v-9.46h2.18V230Z"/><path class="cls-1" d="M422.58,230h-2.19v-9.46h2.19V222a5.23,5.23,0,0,1,.5-.64,3.44,3.44,0,0,1,1.45-.9,3.33,3.33,0,0,1,1-.14,3.15,3.15,0,0,1,2.49,1,3.85,3.85,0,0,1,.87,2.65v6H426.7v-5.36a2.52,2.52,0,0,0-.53-1.71,1.86,1.86,0,0,0-1.48-.6,2,2,0,0,0-1.53.62,2.39,2.39,0,0,0-.58,1.72Z"/><path class="cls-1" d="M442,230V228.8a4,4,0,0,1-1.24,1,3.93,3.93,0,0,1-1.83.4,4.57,4.57,0,0,1-1.29-.19,3.16,3.16,0,0,1-1.06-.56,2.75,2.75,0,0,1-.74-.91,2.85,2.85,0,0,1-.28-1.26v0a3,3,0,0,1,.29-1.34,2.55,2.55,0,0,1,.8-1,3.62,3.62,0,0,1,1.22-.57,6.16,6.16,0,0,1,1.53-.19,8.61,8.61,0,0,1,1.46.11,8.41,8.41,0,0,1,1.15.29v-.24a1.89,1.89,0,0,0-.6-1.5,2.54,2.54,0,0,0-1.73-.52,5.69,5.69,0,0,0-1.43.16,9.51,9.51,0,0,0-1.27.43l-.59-1.74a9.34,9.34,0,0,1,1.61-.57,8.11,8.11,0,0,1,2-.22,4.18,4.18,0,0,1,3.13,1,4,4,0,0,1,1,3V230Zm.05-4a6.25,6.25,0,0,0-1-.26,5.66,5.66,0,0,0-1.19-.11,2.79,2.79,0,0,0-1.59.39,1.29,1.29,0,0,0-.58,1.13v0a1.19,1.19,0,0,0,.53,1,2.26,2.26,0,0,0,1.3.36,3.22,3.22,0,0,0,1-.15,2.45,2.45,0,0,0,.79-.4,1.69,1.69,0,0,0,.53-.63,1.67,1.67,0,0,0,.19-.81Z"/><path class="cls-1" d="M446.44,230V216.89h2.19V230Z"/><path class="cls-1" d="M451.21,230V216.89h2.19V230Z"/><path class="cls-1" d="M468,230v-1.58a5,5,0,0,1-1.29,1.26,3.45,3.45,0,0,1-1.93.52,4.12,4.12,0,0,1-1.62-.33,3.9,3.9,0,0,1-1.4-1,5,5,0,0,1-1-1.55,5.41,5.41,0,0,1-.38-2.09,5.7,5.7,0,0,1,.37-2.1,4.88,4.88,0,0,1,1-1.55,4.07,4.07,0,0,1,1.4-1,4.38,4.38,0,0,1,1.63-.32,3.54,3.54,0,0,1,1.94.5A5.35,5.35,0,0,1,468,222v-5.09h2.19V230Zm-.18-6a3,3,0,0,0-.6-.95,2.56,2.56,0,0,0-.88-.62,2.48,2.48,0,0,0-1-.22,2.66,2.66,0,0,0-1.05.21,2.61,2.61,0,0,0-.87.6,2.71,2.71,0,0,0-.58,1,3.4,3.4,0,0,0-.22,1.28,3.37,3.37,0,0,0,.22,1.26,2.71,2.71,0,0,0,.58,1,2.65,2.65,0,0,0,2.95.61,2.56,2.56,0,0,0,.88-.62,3.12,3.12,0,0,0,.6-1,3.69,3.69,0,0,0,0-2.51Z"/><path class="cls-1" d="M472.55,219.06V217h2.35v2.06Zm.09,10.91v-9.46h2.19V230Z"/><path class="cls-1" d="M479.47,230h-2.19v-9.46h2.19v2.13a4.15,4.15,0,0,1,1.27-1.72,3,3,0,0,1,2.08-.59v2.29h-.13a3.62,3.62,0,0,0-1.3.23,2.7,2.7,0,0,0-1,.7,3.23,3.23,0,0,0-.67,1.18,5.41,5.41,0,0,0-.23,1.64Z"/><path class="cls-1" d="M486.58,227.79a2.71,2.71,0,0,0,1.79.62,3.18,3.18,0,0,0,1.4-.29,4.56,4.56,0,0,0,1.17-.84l1.27,1.13a5.31,5.31,0,0,1-1.62,1.29,4.91,4.91,0,0,1-2.25.48,5.23,5.23,0,0,1-1.91-.35,4.63,4.63,0,0,1-1.54-1,4.52,4.52,0,0,1-1-1.55,5.18,5.18,0,0,1-.38-2,5.54,5.54,0,0,1,.34-1.92,4.91,4.91,0,0,1,1-1.57,4.71,4.71,0,0,1,1.46-1.07,4.38,4.38,0,0,1,1.87-.39,4.58,4.58,0,0,1,2,.41,4.29,4.29,0,0,1,1.41,1.11,4.78,4.78,0,0,1,.85,1.63,6.74,6.74,0,0,1,.29,2,2.62,2.62,0,0,1,0,.28l0,.31h-7A2.82,2.82,0,0,0,486.58,227.79Zm3.91-3.21a3.8,3.8,0,0,0-.23-1,2.52,2.52,0,0,0-.49-.79,2.2,2.2,0,0,0-1.68-.73,2.2,2.2,0,0,0-1.66.69,3.12,3.12,0,0,0-.8,1.81Z"/><path class="cls-1" d="M501.13,229.69a4.63,4.63,0,0,1-2.27.49,4.86,4.86,0,0,1-2-.38,4.91,4.91,0,0,1-1.55-1.06,5,5,0,0,1-1-1.56,5.11,5.11,0,0,1,0-3.82,5,5,0,0,1,1-1.58,5.06,5.06,0,0,1,1.56-1.08,5.46,5.46,0,0,1,4.2.06,5.4,5.4,0,0,1,1.55,1.18l-1.35,1.45a5.21,5.21,0,0,0-1.06-.85,2.72,2.72,0,0,0-1.39-.33,2.53,2.53,0,0,0-1.1.24,2.64,2.64,0,0,0-.86.66,3.24,3.24,0,0,0-.77,2.13,3.36,3.36,0,0,0,.21,1.2,3.05,3.05,0,0,0,.58,1,2.81,2.81,0,0,0,.9.65,2.68,2.68,0,0,0,1.14.24,2.71,2.71,0,0,0,1.36-.33,5.08,5.08,0,0,0,1.1-.85l1.31,1.29A5.94,5.94,0,0,1,501.13,229.69Z"/><path class="cls-1" d="M507,227a1.2,1.2,0,0,0,.31.91,1.25,1.25,0,0,0,.86.28,2.89,2.89,0,0,0,1.34-.33v1.78a3.68,3.68,0,0,1-.87.35,4,4,0,0,1-1.08.13,4.3,4.3,0,0,1-1.1-.14,2.22,2.22,0,0,1-.87-.47,2.06,2.06,0,0,1-.57-.85,3.9,3.9,0,0,1-.2-1.32v-5h-1.2v-1.84h1.2v-2.6H507v2.6h2.55v1.84H507Z"/><path class="cls-1" d="M511.36,219.06V217h2.35v2.06Zm.09,10.91v-9.46h2.19V230Z"/><path class="cls-1" d="M525.28,227.16a5,5,0,0,1-2.66,2.63,5.21,5.21,0,0,1-2,.39,5.12,5.12,0,0,1-2-.38,5,5,0,0,1-1.59-1.06,4.8,4.8,0,0,1-1.42-3.47,4.77,4.77,0,0,1,.38-1.92,5,5,0,0,1,1.06-1.58,5,5,0,0,1,3.61-1.46,5.07,5.07,0,0,1,2,.39,4.89,4.89,0,0,1,1.6,1.05,4.81,4.81,0,0,1,1,1.57,5.1,5.1,0,0,1,0,3.84Zm-2-3.07a3.08,3.08,0,0,0-.59-1,2.72,2.72,0,0,0-.91-.67,2.78,2.78,0,0,0-1.17-.24,2.74,2.74,0,0,0-1.16.24,2.69,2.69,0,0,0-.9.66,2.77,2.77,0,0,0-.57.95,3.52,3.52,0,0,0-.2,1.18,3.18,3.18,0,0,0,.22,1.19,3,3,0,0,0,.59,1,3,3,0,0,0,.91.65,2.72,2.72,0,0,0,1.15.24,2.74,2.74,0,0,0,2.08-.89,2.91,2.91,0,0,0,.57-1,3.52,3.52,0,0,0,.2-1.18A3.13,3.13,0,0,0,523.26,224.09Z"/><path class="cls-1" d="M529.7,230h-2.19v-9.46h2.19V222a5.23,5.23,0,0,1,.5-.64,3.44,3.44,0,0,1,1.45-.9,3.33,3.33,0,0,1,1-.14,3.15,3.15,0,0,1,2.49,1A3.85,3.85,0,0,1,536,224v6h-2.18v-5.36a2.52,2.52,0,0,0-.53-1.71,1.86,1.86,0,0,0-1.48-.6,2,2,0,0,0-1.53.62,2.39,2.39,0,0,0-.58,1.72Z"/><path class="cls-1" d="M544.75,228.48a2.5,2.5,0,0,1-.75.92,3.27,3.27,0,0,1-1.12.56,4.75,4.75,0,0,1-1.38.19,6.25,6.25,0,0,1-2.06-.36,6.62,6.62,0,0,1-2-1.06l1-1.47a5.7,5.7,0,0,0,1.57.87,4.33,4.33,0,0,0,1.53.3,1.78,1.78,0,0,0,1.08-.28.87.87,0,0,0,.39-.74v0a.73.73,0,0,0-.17-.47,1.58,1.58,0,0,0-.47-.34,3,3,0,0,0-.68-.27l-.8-.25c-.34-.1-.69-.22-1-.35a3.69,3.69,0,0,1-.94-.51,2.34,2.34,0,0,1-.69-.78,2.17,2.17,0,0,1-.27-1.13v0a2.67,2.67,0,0,1,1-2.11,3.3,3.3,0,0,1,1.08-.58,4.34,4.34,0,0,1,1.32-.19,6.09,6.09,0,0,1,1.81.28,6.68,6.68,0,0,1,1.66.79l-.86,1.54a7.2,7.2,0,0,0-1.38-.65,3.94,3.94,0,0,0-1.29-.24,1.58,1.58,0,0,0-1,.27.8.8,0,0,0-.34.68v0a.64.64,0,0,0,.17.44,1.64,1.64,0,0,0,.48.34,5.56,5.56,0,0,0,.68.29c.26.09.52.18.8.26s.69.23,1,.37a4.76,4.76,0,0,1,.94.53,2.77,2.77,0,0,1,.69.76,2.11,2.11,0,0,1,.27,1.1v0A2.94,2.94,0,0,1,544.75,228.48Z"/></svg>