<?xml version="1.0" encoding="utf-8"?>
<!-- Generator: Adobe Illustrator 26.0.1, SVG Export Plug-In . SVG Version: 6.00 Build 0)  -->
<svg version="1.1" id="Capa_1" xmlns="http://www.w3.org/2000/svg" xmlns:xlink="http://www.w3.org/1999/xlink" x="0px" y="0px"
	 viewBox="0 0 708.66 283.46" style="enable-background:new 0 0 708.66 283.46;" xml:space="preserve">
<style type="text/css">
	.st0{fill:#FF5100;}
	.st1{fill:#FFFFFF;}
	.st2{fill:#001B71;}
	.st3{fill:#636569;}
	.st4{fill:#868686;}
	.st5{fill:#575756;}
</style>
<g>
	<g>
		<path class="st0" d="M540.39,201.9H278.11l14.57-35.91c1.46-3.6,4.71-5.92,8.3-5.92h262.28l-14.57,35.91
			C547.23,199.58,543.98,201.9,540.39,201.9z"/>
		<g>
			<path class="st1" d="M295.47,196.66l11.36-31.25h26.68l-2.35,6.47h-16.24l-2.15,5.9h14l-2.35,6.47h-14.06l-2.16,5.95h16.3
				l-2.35,6.46H295.47z"/>
			<polygon class="st1" points="345.24,190.62 338.79,196.65 327.6,196.65 342.23,184.14 			"/>
			<polygon class="st1" points="365.87,196.66 352.9,196.66 338.38,165.41 351.35,165.41 			"/>
			<polygon class="st1" points="376.77,165.41 362.13,178.15 359.04,171.52 365.47,165.41 			"/>
			<path class="st1" d="M382.15,186.77l-3.59,9.89h-10.39l11.36-31.25h17.96c4.51,0,7.78,0.83,9.8,2.48
				c2.02,1.66,2.38,4.26,1.09,7.82c-1.28,3.53-3.58,6.25-6.9,8.18c-3.32,1.92-7.23,2.88-11.75,2.88H382.15z M384.5,180.31h6.31
				c0.73,0,1.42-0.09,2.07-0.26c0.65-0.17,1.24-0.44,1.75-0.8c0.51-0.36,0.97-0.79,1.36-1.29c0.39-0.5,0.7-1.06,0.93-1.69
				c0.26-0.72,0.38-1.34,0.37-1.87c-0.02-0.53-0.15-0.99-0.39-1.38c-0.24-0.39-0.62-0.68-1.15-0.87c-0.52-0.19-1.15-0.28-1.88-0.28
				h-6.31L384.5,180.31z"/>
			<path class="st1" d="M444.84,167.89c-1.96-1.66-5.16-2.48-9.6-2.48h-19.28l-11.36,31.25h10.39l3.76-10.35h4.88l3.35,10.35h13.31
				l-5.36-12.07c1.65-0.38,3.16-0.96,4.51-1.77c1.64-0.98,3.01-2.13,4.12-3.44c1.11-1.31,1.89-2.61,2.36-3.89
				C447.16,172.08,446.8,169.55,444.84,167.89z M432,179.23c-1.12,0.66-2.33,0.98-3.63,0.98h-7.4l3.03-8.34h7.63
				c1.26,0,2.18,0.33,2.77,0.98c0.58,0.66,0.63,1.67,0.13,3.04C433.96,177.47,433.11,178.57,432,179.23z"/>
			<path class="st1" d="M443.96,196.66l11.36-31.25h26.68l-2.35,6.47h-16.24l-2.15,5.9h14l-2.35,6.47h-14.06l-2.16,5.95H473
				l-2.35,6.46H443.96z"/>
			<path class="st1" d="M489.96,197.31c-1.91,0-3.67-0.06-5.27-0.19c-1.6-0.13-3.04-0.34-4.33-0.63c-1.29-0.3-2.47-0.69-3.55-1.2
				l2.9-7.96c1.47,1.22,3.23,2.12,5.28,2.69c2.05,0.58,3.99,0.87,5.82,0.87c1.45,0,2.7-0.22,3.74-0.66
				c1.04-0.44,1.75-1.19,2.14-2.25c0.26-0.72,0.04-1.3-0.65-1.76c-0.7-0.45-1.7-0.86-3-1.22c-1.3-0.36-2.76-0.79-4.38-1.29
				c-0.96-0.31-1.86-0.69-2.72-1.12c-0.86-0.44-1.56-0.98-2.13-1.64c-0.56-0.66-0.92-1.47-1.06-2.44c-0.15-0.97,0.03-2.14,0.53-3.51
				c0.5-1.37,1.29-2.69,2.38-3.94c1.09-1.25,2.43-2.36,4.05-3.33c1.61-0.97,3.5-1.72,5.65-2.27c2.15-0.55,4.52-0.82,7.13-0.82
				c1.57,0,2.96,0.07,4.17,0.21c1.21,0.14,2.32,0.37,3.34,0.68c1.01,0.31,2.01,0.7,2.99,1.17l-2.93,8.06
				c-0.62-0.59-1.41-1.16-2.34-1.69c-0.94-0.53-1.95-0.98-3.03-1.36c-1.09-0.38-2.23-0.59-3.43-0.66c-1.02-0.03-2.01,0.04-2.97,0.21
				c-0.96,0.17-1.8,0.48-2.51,0.91c-0.71,0.44-1.21,1.03-1.48,1.78c-0.28,0.78-0.19,1.4,0.27,1.85c0.47,0.45,1.21,0.83,2.23,1.12
				c1.02,0.3,2.16,0.6,3.43,0.91c1.47,0.38,2.78,0.8,3.93,1.26c1.15,0.47,2.08,1.05,2.78,1.73c0.71,0.69,1.15,1.52,1.33,2.51
				c0.18,0.98,0.01,2.18-0.5,3.58c-0.73,2-1.95,3.78-3.66,5.34c-1.71,1.56-3.78,2.79-6.19,3.68
				C495.47,196.87,492.83,197.31,489.96,197.31z"/>
			<path class="st1" d="M522.72,197.31c-1.91,0-3.67-0.06-5.27-0.19c-1.6-0.13-3.04-0.34-4.33-0.63c-1.29-0.3-2.47-0.69-3.55-1.2
				l2.9-7.96c1.47,1.22,3.23,2.12,5.28,2.69c2.05,0.58,3.99,0.87,5.82,0.87c1.45,0,2.7-0.22,3.74-0.66
				c1.04-0.44,1.75-1.19,2.14-2.25c0.26-0.72,0.04-1.3-0.65-1.76c-0.7-0.45-1.7-0.86-3-1.22c-1.3-0.36-2.76-0.79-4.38-1.29
				c-0.96-0.31-1.86-0.69-2.72-1.12c-0.86-0.44-1.56-0.98-2.13-1.64c-0.56-0.66-0.92-1.47-1.06-2.44c-0.15-0.97,0.03-2.14,0.53-3.51
				c0.5-1.37,1.29-2.69,2.38-3.94c1.09-1.25,2.43-2.36,4.05-3.33c1.61-0.97,3.5-1.72,5.65-2.27c2.15-0.55,4.52-0.82,7.13-0.82
				c1.57,0,2.96,0.07,4.17,0.21c1.21,0.14,2.32,0.37,3.34,0.68c1.01,0.31,2.01,0.7,2.99,1.17l-2.93,8.06
				c-0.62-0.59-1.41-1.16-2.34-1.69c-0.94-0.53-1.95-0.98-3.03-1.36c-1.09-0.38-2.23-0.59-3.43-0.66c-1.02-0.03-2.01,0.04-2.97,0.21
				c-0.96,0.17-1.8,0.48-2.51,0.91c-0.71,0.44-1.21,1.03-1.48,1.78c-0.28,0.78-0.19,1.4,0.27,1.85c0.47,0.45,1.21,0.83,2.23,1.12
				c1.02,0.3,2.16,0.6,3.43,0.91c1.47,0.38,2.78,0.8,3.93,1.26c1.15,0.47,2.08,1.05,2.78,1.73c0.71,0.69,1.15,1.52,1.33,2.51
				c0.18,0.98,0.01,2.18-0.5,3.58c-0.73,2-1.95,3.78-3.66,5.34c-1.71,1.56-3.78,2.79-6.19,3.68
				C528.22,196.87,525.59,197.31,522.72,197.31z"/>
		</g>
	</g>
	<g>
		<polygon class="st2" points="367.45,147.62 379.9,147.62 356.7,93.09 345.71,93.09 322.51,147.62 330.23,147.62 334.65,147.62 
			359.93,147.62 355.44,136.6 339.15,136.6 351.05,107.4 		"/>
		<polygon class="st2" points="484.47,147.62 496.93,147.62 473.72,93.09 462.74,93.09 439.53,147.62 447.26,147.62 451.68,147.62 
			476.95,147.62 472.46,136.6 456.17,136.6 468.08,107.4 		"/>
		<polygon class="st2" points="612.71,147.62 625.17,147.62 601.96,93.09 590.98,93.09 567.78,147.62 575.5,147.62 579.92,147.62 
			605.19,147.62 600.7,136.6 584.41,136.6 596.32,107.4 		"/>
		<polygon class="st2" points="546.58,93.48 532.35,116.37 518.12,93.48 505.28,93.48 505.28,147.62 517.04,147.62 517.04,112.5 
			528.94,130.58 535.6,130.58 547.67,112.27 547.67,147.62 559.42,147.62 559.42,93.48 		"/>
		<path class="st2" d="M667.09,128.28c3.45-1.29,6.25-3.31,8.39-6.07c2.14-2.76,3.21-6.33,3.21-10.71v-0.15
			c0-5.62-1.79-10-5.38-13.15c-3.58-3.14-8.6-4.72-15.04-4.72H626.1v10.75h31.17c2.94,0,5.23,0.65,6.88,1.93
			c1.65,1.29,2.47,3.22,2.47,5.8v0.15c0,2.32-0.79,4.18-2.36,5.57c-1.57,1.39-3.83,2.09-6.77,2.09H644.5v-8.51h-10.98v8.51v27.85
			h11.91v-17.33h9.36l11.6,17.33h13.92L667.09,128.28z"/>
		<path class="st2" d="M421.77,128.28c3.45-1.29,6.25-3.31,8.39-6.07c2.14-2.76,3.21-6.33,3.21-10.71v-0.15
			c0-5.62-1.79-10-5.38-13.15c-3.58-3.14-8.6-4.72-15.04-4.72h-32.17v10.75h31.17c2.94,0,5.23,0.65,6.88,1.93
			c1.65,1.29,2.47,3.22,2.47,5.8v0.15c0,2.32-0.79,4.18-2.36,5.57c-1.57,1.39-3.83,2.09-6.77,2.09h-12.99v-8.51H388.2v8.51v27.85
			h11.91v-17.33h9.36l11.6,17.33H435L421.77,128.28z"/>
		<path class="st2" d="M284.47,93.47l5.13,12.23l13.19-0.01v22.67c0,3.15-0.65,5.43-1.93,6.85c-1.29,1.42-3.07,2.13-5.34,2.13
			c-1.91,0-3.65-0.48-5.22-1.43c-1.57-0.95-3.13-2.28-4.68-3.98l-7.5,8.35c1.86,2.22,4.22,4.13,7.08,5.72
			c2.86,1.6,6.41,2.4,10.64,2.4c2.84,0,5.44-0.4,7.81-1.2c2.37-0.8,4.4-2.01,6.07-3.64c1.67-1.62,2.98-3.65,3.91-6.07
			c0.93-2.42,1.39-5.28,1.39-8.59v-23.21v-0.62v-11.6H284.47z"/>
	</g>
	<path class="st2" d="M248.09,141.74c0,52.38-42.47,94.85-94.86,94.85c-19.08,0-36.85-5.63-51.74-15.35l43.23-6.12
		c2.79,0.33,5.63,0.49,8.5,0.49c10.11,0,19.75-2.04,28.51-5.72c4.24-1.78,8.27-3.95,12.06-6.47c19.91-13.17,33.04-35.76,33.04-61.42
		c0-11.73-2.75-22.82-7.63-32.66l18.55-10.7C244.36,111.57,248.09,126.22,248.09,141.74z"/>
	<path class="st2" d="M209.87,65.64l-37.44,5.29c-6.12-1.65-12.56-2.53-19.2-2.53c-13.96,0-27.02,3.89-38.14,10.65
		c-1.74,1.05-3.43,2.17-5.07,3.37c-18.41,13.38-30.39,35.08-30.39,59.58c0,12.83,3.28,24.9,9.06,35.4l-18.3,10.56
		c-7.65-13.67-12.01-29.44-12.01-46.23c0-52.39,42.46-94.86,94.85-94.86C174.46,46.88,194.07,53.85,209.87,65.64z"/>
	<g>
		<g>
			<path class="st2" d="M198.71,124.2L28.35,222.56l146.63-20.75l-26.41-17.25c-2.85-1.86-3.28-5.86-0.9-8.29L198.71,124.2z"/>
			<path class="st0" d="M107.75,163.38l170.36-98.36L131.48,85.77l26.41,17.25c2.85,1.86,3.28,5.86,0.9,8.29L107.75,163.38z"/>
		</g>
	</g>
	<g>
		<path class="st3" d="M291.19,229.97h-2.33l-1.27-3.03h-5.93l-1.29,3.03h-2.26l5.52-12.63h2.04L291.19,229.97z M284.62,219.97
			l-2.15,5.02h4.32L284.62,219.97z"/>
		<path class="st3" d="M292.86,229.97v-13.08h2.19v13.08H292.86z"/>
		<path class="st3" d="M306.89,226.99l1.94-6.49h2.17l-3.1,9.53h-1.93l-2.11-6.47l-2.13,6.47h-1.94l-3.06-9.53h2.22l1.9,6.49
			l2.1-6.52h1.85L306.89,226.99z"/>
		<path class="st3" d="M318,229.97v-1.17c-0.32,0.38-0.73,0.71-1.24,0.97c-0.5,0.26-1.11,0.39-1.83,0.39
			c-0.45,0-0.88-0.06-1.29-0.19s-0.76-0.31-1.07-0.56c-0.3-0.24-0.55-0.55-0.73-0.91c-0.18-0.36-0.28-0.79-0.28-1.26v-0.04
			c0-0.51,0.1-0.96,0.29-1.34c0.19-0.38,0.46-0.7,0.8-0.95c0.34-0.25,0.75-0.44,1.22-0.56c0.47-0.13,0.98-0.19,1.53-0.19
			c0.57,0,1.06,0.04,1.46,0.11c0.4,0.07,0.79,0.17,1.16,0.29v-0.23c0-0.66-0.2-1.16-0.6-1.5c-0.4-0.35-0.98-0.52-1.73-0.52
			c-0.54,0-1.02,0.05-1.43,0.16c-0.42,0.11-0.84,0.25-1.27,0.43l-0.59-1.74c0.53-0.24,1.06-0.43,1.61-0.57
			c0.55-0.14,1.21-0.21,1.99-0.21c1.41,0,2.46,0.35,3.14,1.05c0.68,0.7,1.02,1.68,1.02,2.95v5.61H318z M318.05,225.96
			c-0.27-0.11-0.6-0.2-0.98-0.27c-0.38-0.07-0.77-0.11-1.19-0.11c-0.68,0-1.21,0.13-1.6,0.39c-0.38,0.26-0.57,0.64-0.57,1.13v0.04
			c0,0.45,0.18,0.8,0.53,1.04c0.35,0.24,0.79,0.36,1.3,0.36c0.36,0,0.69-0.05,1-0.14c0.3-0.09,0.57-0.23,0.8-0.4
			c0.23-0.17,0.4-0.38,0.53-0.63c0.12-0.25,0.19-0.52,0.19-0.82V225.96z"/>
		<path class="st3" d="M327.07,230.24c-0.19,0.49-0.39,0.9-0.59,1.24c-0.2,0.33-0.43,0.61-0.68,0.82s-0.53,0.36-0.82,0.46
			c-0.3,0.09-0.64,0.14-1.02,0.14c-0.45,0-0.86-0.05-1.21-0.15c-0.35-0.1-0.7-0.24-1.03-0.43l0.73-1.63
			c0.2,0.11,0.41,0.19,0.62,0.26c0.21,0.07,0.43,0.1,0.65,0.1c0.31,0,0.57-0.08,0.77-0.23c0.2-0.16,0.39-0.44,0.57-0.86l-3.94-9.45
			h2.31l2.69,7.02l2.45-7.02h2.26L327.07,230.24z"/>
		<path class="st3" d="M338.46,228.48c-0.18,0.37-0.43,0.68-0.74,0.92c-0.32,0.25-0.69,0.43-1.12,0.56
			c-0.43,0.13-0.89,0.19-1.38,0.19c-0.68,0-1.37-0.12-2.07-0.36c-0.7-0.24-1.35-0.59-1.94-1.06l0.97-1.47
			c0.51,0.38,1.04,0.67,1.57,0.87c0.53,0.2,1.04,0.3,1.53,0.3c0.47,0,0.83-0.09,1.08-0.28c0.26-0.18,0.38-0.43,0.38-0.74v-0.04
			c0-0.18-0.06-0.33-0.17-0.47c-0.11-0.13-0.27-0.25-0.47-0.35c-0.2-0.1-0.42-0.19-0.68-0.27c-0.26-0.08-0.52-0.16-0.8-0.24
			c-0.35-0.11-0.7-0.23-1.05-0.36s-0.67-0.3-0.95-0.51c-0.28-0.21-0.51-0.47-0.69-0.77c-0.18-0.3-0.27-0.68-0.27-1.14v-0.04
			c0-0.44,0.09-0.84,0.26-1.2c0.17-0.36,0.41-0.66,0.72-0.91c0.3-0.25,0.66-0.44,1.08-0.57c0.41-0.13,0.85-0.2,1.32-0.2
			c0.6,0,1.2,0.1,1.81,0.29c0.61,0.19,1.16,0.45,1.67,0.79l-0.86,1.54c-0.45-0.27-0.91-0.49-1.38-0.65
			c-0.47-0.16-0.9-0.24-1.29-0.24c-0.42,0-0.74,0.09-0.98,0.27c-0.23,0.18-0.35,0.41-0.35,0.68v0.04c0,0.17,0.06,0.31,0.18,0.44
			c0.12,0.13,0.28,0.24,0.47,0.34c0.2,0.1,0.42,0.2,0.68,0.29c0.26,0.09,0.52,0.18,0.8,0.26c0.35,0.11,0.69,0.23,1.04,0.38
			c0.35,0.14,0.66,0.32,0.94,0.53c0.28,0.21,0.51,0.46,0.69,0.76c0.18,0.3,0.27,0.66,0.27,1.09v0.04
			C338.73,227.68,338.64,228.11,338.46,228.48z"/>
		<path class="st3" d="M354.83,220.77c0.52-0.31,1.14-0.46,1.86-0.46c1.04,0,1.85,0.31,2.44,0.94c0.59,0.63,0.88,1.52,0.88,2.68
			v6.04h-2.19v-5.36c0-0.75-0.17-1.32-0.5-1.72c-0.33-0.39-0.8-0.59-1.41-0.59c-0.59,0-1.08,0.2-1.45,0.6
			c-0.37,0.4-0.56,0.98-0.56,1.74v5.33h-2.19v-5.38c0-0.74-0.17-1.31-0.5-1.7s-0.8-0.59-1.41-0.59c-0.61,0-1.09,0.21-1.46,0.63
			c-0.37,0.42-0.55,1-0.55,1.73v5.31h-2.19v-9.46h2.19v1.45c0.15-0.22,0.32-0.42,0.5-0.61c0.18-0.19,0.38-0.37,0.62-0.52
			c0.23-0.16,0.5-0.28,0.79-0.37c0.29-0.09,0.62-0.14,0.98-0.14c0.68,0,1.26,0.15,1.73,0.46c0.47,0.31,0.83,0.71,1.08,1.22
			C353.86,221.49,354.31,221.08,354.83,220.77z"/>
		<path class="st3" d="M371.44,227.16c-0.26,0.6-0.61,1.12-1.06,1.57c-0.45,0.45-0.98,0.8-1.6,1.07c-0.62,0.26-1.3,0.39-2.02,0.39
			c-0.72,0-1.38-0.13-2-0.38c-0.62-0.26-1.15-0.61-1.59-1.06c-0.45-0.45-0.8-0.97-1.05-1.56c-0.25-0.59-0.38-1.23-0.38-1.91
			c0-0.68,0.13-1.32,0.38-1.93c0.26-0.6,0.61-1.13,1.06-1.58c0.45-0.45,0.98-0.8,1.59-1.07c0.62-0.26,1.29-0.39,2.02-0.39
			c0.73,0,1.4,0.13,2.02,0.38c0.61,0.26,1.15,0.61,1.59,1.06c0.45,0.45,0.8,0.97,1.05,1.57c0.25,0.6,0.38,1.24,0.38,1.92
			C371.83,225.92,371.7,226.56,371.44,227.16z M369.43,224.09c-0.14-0.37-0.34-0.7-0.6-0.98c-0.26-0.28-0.56-0.5-0.91-0.66
			c-0.35-0.16-0.74-0.24-1.17-0.24s-0.82,0.08-1.17,0.24c-0.35,0.16-0.65,0.38-0.9,0.65c-0.25,0.27-0.44,0.59-0.57,0.96
			c-0.13,0.36-0.2,0.76-0.2,1.17c0,0.42,0.07,0.82,0.21,1.19c0.14,0.38,0.34,0.7,0.6,0.98c0.26,0.27,0.56,0.49,0.91,0.65
			s0.73,0.24,1.15,0.24c0.44,0,0.83-0.08,1.18-0.24s0.65-0.38,0.9-0.65c0.25-0.27,0.44-0.59,0.57-0.96s0.2-0.76,0.2-1.17
			C369.64,224.86,369.57,224.46,369.43,224.09z"/>
		<path class="st3" d="M379.68,220.51h2.28l-3.87,9.53h-1.95l-3.89-9.53h2.33l2.55,6.95L379.68,220.51z"/>
		<path class="st3" d="M383.48,219.06V217h2.35v2.06H383.48z M383.57,229.97v-9.46h2.19v9.46H383.57z"/>
		<path class="st3" d="M390.39,229.97h-2.19v-9.46h2.19v1.48c0.15-0.23,0.32-0.44,0.51-0.64c0.18-0.2,0.4-0.38,0.64-0.53
			c0.24-0.16,0.51-0.28,0.8-0.37c0.29-0.09,0.62-0.14,0.99-0.14c1.07,0,1.9,0.33,2.48,0.99c0.58,0.66,0.88,1.54,0.88,2.65v6.02
			h-2.19v-5.36c0-0.74-0.18-1.31-0.52-1.71c-0.35-0.4-0.84-0.6-1.48-0.6c-0.63,0-1.14,0.21-1.53,0.62
			c-0.39,0.41-0.59,0.99-0.59,1.73V229.97z"/>
		<path class="st3" d="M406.93,231.71c-0.88,0.78-2.14,1.16-3.76,1.16c-1.58,0-2.99-0.38-4.23-1.13l0.81-1.63
			c0.5,0.31,1.03,0.55,1.58,0.73c0.55,0.18,1.15,0.27,1.79,0.27c0.97,0,1.71-0.25,2.22-0.74c0.51-0.49,0.77-1.22,0.77-2.18v-0.74
			c-0.39,0.52-0.85,0.94-1.38,1.27c-0.53,0.33-1.18,0.49-1.95,0.49c-0.56,0-1.1-0.1-1.61-0.3c-0.51-0.2-0.97-0.49-1.37-0.87
			c-0.4-0.38-0.72-0.85-0.96-1.4c-0.24-0.55-0.36-1.18-0.36-1.88c0-0.7,0.12-1.33,0.36-1.88c0.24-0.55,0.56-1.01,0.96-1.4
			c0.4-0.38,0.86-0.67,1.38-0.88s1.05-0.3,1.6-0.3c0.8,0,1.46,0.16,1.98,0.48c0.52,0.32,0.96,0.7,1.34,1.15v-1.43h2.17v7.53
			C408.26,229.71,407.82,230.93,406.93,231.71z M405.9,223.7c-0.15-0.33-0.35-0.6-0.6-0.83s-0.55-0.4-0.89-0.53
			c-0.34-0.12-0.7-0.19-1.07-0.19c-0.38,0-0.73,0.06-1.06,0.19c-0.32,0.12-0.61,0.3-0.85,0.53c-0.25,0.23-0.44,0.5-0.57,0.82
			c-0.14,0.32-0.21,0.68-0.21,1.07c0,0.39,0.07,0.75,0.21,1.07c0.14,0.32,0.33,0.6,0.57,0.83c0.24,0.23,0.52,0.41,0.85,0.53
			c0.33,0.12,0.68,0.19,1.05,0.19c0.37,0,0.73-0.06,1.07-0.19c0.34-0.12,0.64-0.3,0.89-0.53s0.45-0.5,0.6-0.82
			c0.15-0.31,0.22-0.67,0.22-1.06S406.05,224.02,405.9,223.7z"/>
		<path class="st3" d="M415.66,219.06V217h2.35v2.06H415.66z M415.75,229.97v-9.46h2.19v9.46H415.75z"/>
		<path class="st3" d="M422.58,229.97h-2.19v-9.46h2.19v1.48c0.15-0.23,0.32-0.44,0.51-0.64c0.18-0.2,0.4-0.38,0.64-0.53
			c0.24-0.16,0.51-0.28,0.8-0.37c0.29-0.09,0.62-0.14,0.99-0.14c1.07,0,1.9,0.33,2.48,0.99c0.58,0.66,0.88,1.54,0.88,2.65v6.02
			h-2.19v-5.36c0-0.74-0.18-1.31-0.52-1.71c-0.35-0.4-0.84-0.6-1.48-0.6c-0.63,0-1.14,0.21-1.53,0.62
			c-0.39,0.41-0.59,0.99-0.59,1.73V229.97z"/>
		<path class="st3" d="M441.95,229.97v-1.17c-0.32,0.38-0.73,0.71-1.24,0.97c-0.5,0.26-1.11,0.39-1.83,0.39
			c-0.45,0-0.88-0.06-1.29-0.19s-0.76-0.31-1.07-0.56c-0.3-0.24-0.55-0.55-0.73-0.91c-0.18-0.36-0.28-0.79-0.28-1.26v-0.04
			c0-0.51,0.1-0.96,0.29-1.34c0.19-0.38,0.46-0.7,0.8-0.95c0.34-0.25,0.75-0.44,1.22-0.56c0.47-0.13,0.98-0.19,1.53-0.19
			c0.57,0,1.06,0.04,1.46,0.11c0.4,0.07,0.79,0.17,1.16,0.29v-0.23c0-0.66-0.2-1.16-0.6-1.5c-0.4-0.35-0.98-0.52-1.73-0.52
			c-0.54,0-1.02,0.05-1.43,0.16c-0.42,0.11-0.84,0.25-1.27,0.43l-0.59-1.74c0.53-0.24,1.06-0.43,1.61-0.57
			c0.55-0.14,1.21-0.21,1.99-0.21c1.41,0,2.46,0.35,3.14,1.05c0.68,0.7,1.02,1.68,1.02,2.95v5.61H441.95z M442,225.96
			c-0.27-0.11-0.6-0.2-0.98-0.27c-0.38-0.07-0.77-0.11-1.19-0.11c-0.68,0-1.21,0.13-1.6,0.39c-0.38,0.26-0.57,0.64-0.57,1.13v0.04
			c0,0.45,0.18,0.8,0.53,1.04c0.35,0.24,0.79,0.36,1.3,0.36c0.36,0,0.69-0.05,1-0.14c0.3-0.09,0.57-0.23,0.8-0.4
			c0.23-0.17,0.4-0.38,0.53-0.63c0.12-0.25,0.19-0.52,0.19-0.82V225.96z"/>
		<path class="st3" d="M446.44,229.97v-13.08h2.19v13.08H446.44z"/>
		<path class="st3" d="M451.21,229.97v-13.08h2.19v13.08H451.21z"/>
		<path class="st3" d="M467.98,229.97v-1.58c-0.35,0.49-0.78,0.91-1.3,1.25c-0.52,0.35-1.16,0.52-1.92,0.52
			c-0.56,0-1.1-0.11-1.63-0.32c-0.52-0.21-0.99-0.53-1.39-0.96c-0.4-0.42-0.73-0.94-0.98-1.55s-0.38-1.31-0.38-2.1
			s0.12-1.49,0.37-2.1s0.57-1.13,0.97-1.55c0.41-0.42,0.87-0.74,1.4-0.96c0.53-0.21,1.08-0.32,1.64-0.32c0.77,0,1.42,0.17,1.93,0.5
			c0.51,0.33,0.94,0.72,1.29,1.17v-5.09h2.19v13.08H467.98z M467.8,223.98c-0.15-0.37-0.35-0.69-0.6-0.96
			c-0.25-0.27-0.54-0.47-0.87-0.62c-0.33-0.14-0.68-0.22-1.04-0.22c-0.37,0-0.72,0.07-1.04,0.21c-0.33,0.14-0.62,0.34-0.87,0.6
			c-0.25,0.26-0.45,0.58-0.59,0.96c-0.14,0.38-0.21,0.8-0.21,1.28c0,0.47,0.07,0.89,0.21,1.26c0.14,0.38,0.34,0.7,0.59,0.96
			c0.25,0.26,0.54,0.47,0.87,0.61c0.33,0.14,0.68,0.21,1.04,0.21c0.36,0,0.7-0.07,1.04-0.21c0.33-0.14,0.63-0.35,0.87-0.62
			c0.25-0.27,0.45-0.59,0.6-0.96c0.15-0.37,0.22-0.79,0.22-1.25S467.94,224.35,467.8,223.98z"/>
		<path class="st3" d="M472.55,219.06V217h2.35v2.06H472.55z M472.64,229.97v-9.46h2.19v9.46H472.64z"/>
		<path class="st3" d="M479.47,229.97h-2.19v-9.46h2.19v2.13c0.3-0.72,0.72-1.29,1.27-1.72c0.55-0.43,1.24-0.63,2.08-0.59v2.29
			h-0.13c-0.48,0-0.91,0.08-1.31,0.23c-0.39,0.16-0.73,0.39-1.02,0.7c-0.29,0.31-0.51,0.7-0.66,1.17c-0.16,0.47-0.23,1.02-0.23,1.64
			V229.97z"/>
		<path class="st3" d="M486.58,227.79c0.49,0.41,1.09,0.62,1.79,0.62c0.54,0,1-0.1,1.4-0.29c0.39-0.19,0.78-0.47,1.16-0.84
			l1.27,1.13c-0.45,0.54-1,0.97-1.62,1.29c-0.63,0.32-1.38,0.48-2.25,0.48c-0.68,0-1.32-0.12-1.91-0.36c-0.59-0.24-1.11-0.57-1.54-1
			c-0.44-0.43-0.78-0.95-1.03-1.55c-0.25-0.6-0.38-1.28-0.38-2.02c0-0.68,0.11-1.32,0.34-1.92c0.23-0.6,0.55-1.12,0.96-1.57
			c0.41-0.45,0.9-0.8,1.46-1.07c0.56-0.26,1.18-0.39,1.86-0.39c0.75,0,1.41,0.14,1.98,0.41c0.57,0.27,1.04,0.64,1.42,1.11
			c0.38,0.47,0.66,1.01,0.85,1.63c0.19,0.62,0.29,1.27,0.29,1.95c0,0.1,0,0.19-0.01,0.29c-0.01,0.1-0.02,0.2-0.03,0.3h-6.95
			C485.78,226.79,486.09,227.38,486.58,227.79z M490.49,224.58c-0.04-0.35-0.11-0.67-0.23-0.98c-0.12-0.3-0.28-0.57-0.48-0.79
			c-0.2-0.22-0.45-0.4-0.73-0.53c-0.28-0.13-0.6-0.2-0.96-0.2c-0.67,0-1.22,0.23-1.66,0.69c-0.44,0.46-0.7,1.06-0.8,1.8H490.49z"/>
		<path class="st3" d="M501.13,229.69c-0.6,0.33-1.36,0.49-2.28,0.49c-0.71,0-1.36-0.13-1.95-0.38c-0.6-0.26-1.12-0.61-1.56-1.06
			c-0.44-0.45-0.78-0.97-1.03-1.56c-0.25-0.59-0.37-1.23-0.37-1.91c0-0.68,0.12-1.32,0.37-1.92c0.25-0.6,0.59-1.12,1.03-1.58
			c0.44-0.45,0.96-0.81,1.56-1.08c0.6-0.26,1.26-0.39,1.96-0.39c0.9,0,1.64,0.15,2.23,0.45c0.59,0.3,1.11,0.69,1.55,1.18l-1.34,1.45
			c-0.34-0.35-0.69-0.63-1.07-0.85c-0.38-0.22-0.84-0.33-1.39-0.33c-0.39,0-0.76,0.08-1.09,0.24s-0.62,0.38-0.86,0.65
			c-0.24,0.27-0.43,0.59-0.56,0.96c-0.14,0.36-0.21,0.76-0.21,1.17c0,0.43,0.07,0.83,0.21,1.2c0.14,0.37,0.33,0.69,0.58,0.97
			s0.55,0.49,0.9,0.65s0.73,0.24,1.15,0.24c0.51,0,0.96-0.11,1.35-0.33c0.39-0.22,0.76-0.5,1.1-0.85l1.31,1.29
			C502.26,228.94,501.73,229.36,501.13,229.69z"/>
		<path class="st3" d="M506.97,227.01c0,0.42,0.1,0.72,0.3,0.91c0.2,0.19,0.49,0.28,0.86,0.28c0.47,0,0.91-0.11,1.34-0.32v1.77
			c-0.27,0.16-0.57,0.27-0.88,0.36c-0.31,0.08-0.67,0.13-1.08,0.13c-0.39,0-0.76-0.05-1.1-0.14c-0.34-0.1-0.63-0.25-0.88-0.47
			c-0.25-0.22-0.44-0.5-0.57-0.85c-0.13-0.35-0.2-0.79-0.2-1.32v-4.99h-1.2v-1.85h1.2v-2.6h2.19v2.6h2.55v1.85h-2.55V227.01z"/>
		<path class="st3" d="M511.36,219.06V217h2.35v2.06H511.36z M511.45,229.97v-9.46h2.19v9.46H511.45z"/>
		<path class="st3" d="M525.28,227.16c-0.26,0.6-0.61,1.12-1.06,1.57c-0.45,0.45-0.98,0.8-1.6,1.07c-0.62,0.26-1.3,0.39-2.02,0.39
			c-0.72,0-1.38-0.13-2-0.38c-0.62-0.26-1.15-0.61-1.59-1.06c-0.45-0.45-0.8-0.97-1.05-1.56c-0.25-0.59-0.38-1.23-0.38-1.91
			c0-0.68,0.13-1.32,0.38-1.93c0.26-0.6,0.61-1.13,1.06-1.58c0.45-0.45,0.98-0.8,1.59-1.07c0.62-0.26,1.29-0.39,2.02-0.39
			c0.73,0,1.4,0.13,2.02,0.38c0.61,0.26,1.15,0.61,1.59,1.06c0.45,0.45,0.8,0.97,1.05,1.57c0.25,0.6,0.38,1.24,0.38,1.92
			C525.66,225.92,525.53,226.56,525.28,227.16z M523.26,224.09c-0.14-0.37-0.34-0.7-0.6-0.98c-0.26-0.28-0.56-0.5-0.91-0.66
			c-0.35-0.16-0.74-0.24-1.17-0.24s-0.82,0.08-1.17,0.24c-0.35,0.16-0.65,0.38-0.9,0.65c-0.25,0.27-0.44,0.59-0.57,0.96
			c-0.13,0.36-0.2,0.76-0.2,1.17c0,0.42,0.07,0.82,0.21,1.19c0.14,0.38,0.34,0.7,0.6,0.98c0.26,0.27,0.56,0.49,0.91,0.65
			c0.35,0.16,0.73,0.24,1.15,0.24c0.44,0,0.83-0.08,1.18-0.24s0.65-0.38,0.9-0.65s0.44-0.59,0.57-0.96s0.2-0.76,0.2-1.17
			C523.48,224.86,523.41,224.46,523.26,224.09z"/>
		<path class="st3" d="M529.7,229.97h-2.19v-9.46h2.19v1.48c0.15-0.23,0.32-0.44,0.51-0.64c0.18-0.2,0.4-0.38,0.64-0.53
			c0.24-0.16,0.51-0.28,0.8-0.37c0.29-0.09,0.62-0.14,0.99-0.14c1.07,0,1.9,0.33,2.48,0.99c0.58,0.66,0.88,1.54,0.88,2.65v6.02
			h-2.19v-5.36c0-0.74-0.18-1.31-0.52-1.71c-0.35-0.4-0.84-0.6-1.48-0.6c-0.63,0-1.14,0.21-1.53,0.62
			c-0.39,0.41-0.59,0.99-0.59,1.73V229.97z"/>
		<path class="st3" d="M544.75,228.48c-0.18,0.37-0.43,0.68-0.74,0.92c-0.32,0.25-0.69,0.43-1.12,0.56s-0.89,0.19-1.38,0.19
			c-0.68,0-1.37-0.12-2.07-0.36c-0.7-0.24-1.35-0.59-1.94-1.06l0.97-1.47c0.51,0.38,1.04,0.67,1.57,0.87c0.53,0.2,1.04,0.3,1.53,0.3
			c0.47,0,0.83-0.09,1.08-0.28c0.26-0.18,0.38-0.43,0.38-0.74v-0.04c0-0.18-0.06-0.33-0.17-0.47c-0.11-0.13-0.27-0.25-0.47-0.35
			c-0.2-0.1-0.42-0.19-0.68-0.27c-0.26-0.08-0.52-0.16-0.8-0.24c-0.35-0.11-0.7-0.23-1.05-0.36s-0.67-0.3-0.95-0.51
			c-0.28-0.21-0.51-0.47-0.69-0.77c-0.18-0.3-0.27-0.68-0.27-1.14v-0.04c0-0.44,0.09-0.84,0.26-1.2c0.17-0.36,0.41-0.66,0.72-0.91
			s0.66-0.44,1.08-0.57c0.41-0.13,0.85-0.2,1.32-0.2c0.6,0,1.2,0.1,1.81,0.29c0.61,0.19,1.16,0.45,1.67,0.79l-0.86,1.54
			c-0.45-0.27-0.91-0.49-1.38-0.65c-0.47-0.16-0.9-0.24-1.29-0.24c-0.42,0-0.74,0.09-0.98,0.27c-0.23,0.18-0.35,0.41-0.35,0.68v0.04
			c0,0.17,0.06,0.31,0.18,0.44c0.12,0.13,0.28,0.24,0.47,0.34c0.2,0.1,0.42,0.2,0.68,0.29c0.26,0.09,0.52,0.18,0.8,0.26
			c0.35,0.11,0.69,0.23,1.04,0.38c0.35,0.14,0.66,0.32,0.94,0.53c0.28,0.21,0.51,0.46,0.69,0.76c0.18,0.3,0.27,0.66,0.27,1.09v0.04
			C545.02,227.68,544.93,228.11,544.75,228.48z"/>
	</g>
</g>
</svg>
