<?xml version="1.0" encoding="utf-8"?>
<!-- Generator: Adobe Illustrator 26.0.1, SVG Export Plug-In . SVG Version: 6.00 Build 0)  -->
<svg version="1.1" id="Capa_1" xmlns="http://www.w3.org/2000/svg" xmlns:xlink="http://www.w3.org/1999/xlink" x="0px" y="0px"
	 viewBox="0 0 510.24 425.2" style="enable-background:new 0 0 510.24 425.2;" xml:space="preserve">
<style type="text/css">
	.st0{fill:#FF5100;}
	.st1{fill:#FFFFFF;}
	.st2{fill:#001B71;}
	.st3{fill:#636569;}
	.st4{fill:#868686;}
	.st5{fill:#575756;}
</style>
<g>
	<g>
		<path class="st1" d="M265.57,308.56h-7.29l-2.9,7.97h7.07c1.24,0,2.4-0.31,3.47-0.94c1.07-0.63,1.87-1.69,2.42-3.18
			c0.48-1.31,0.44-2.28-0.12-2.91C267.66,308.87,266.78,308.56,265.57,308.56z"/>
		<path class="st1" d="M231.3,308.83c-0.5-0.18-1.1-0.27-1.79-0.27h-6.03l-2.93,8.06h6.03c0.69,0,1.35-0.08,1.98-0.25
			c0.62-0.16,1.18-0.42,1.67-0.76c0.49-0.34,0.92-0.75,1.3-1.23c0.37-0.48,0.67-1.01,0.89-1.61c0.25-0.69,0.37-1.28,0.35-1.79
			c-0.02-0.51-0.14-0.95-0.37-1.32C232.16,309.28,231.8,309.01,231.3,308.83z"/>
		<path class="st1" d="M140.77,297.28c-3.43,0-6.54,2.21-7.93,5.65l-13.92,34.31h250.55c3.43,0,6.54-2.21,7.93-5.65l13.92-34.31
			H140.77z M202.37,302.38h10.8l-13.99,12.18l-2.95-6.34L202.37,302.38z M163.23,326.06l-2.25,6.18H135.5l10.85-29.85h25.49
			l-2.24,6.18h-15.51l-2.05,5.64h13.37l-2.24,6.18h-13.43l-2.07,5.68H163.23z M176.88,332.23h-10.69l13.98-11.95l2.87,6.18
			L176.88,332.23z M190.36,332.23l-13.87-29.85h12.39l13.87,29.85H190.36z M225.54,322.79h-7.24l-3.43,9.44h-9.92l10.85-29.85h17.16
			c4.31,0,7.43,0.79,9.36,2.37c1.93,1.58,2.27,4.07,1.04,7.47c-1.23,3.37-3.42,5.97-6.59,7.81
			C233.59,321.87,229.85,322.79,225.54,322.79z M273.04,319.01c-1.29,0.78-2.73,1.33-4.31,1.69l5.12,11.54h-12.72l-3.2-9.89h-4.66
			l-3.6,9.89h-9.92l10.85-29.85h18.42c4.24,0,7.3,0.79,9.17,2.37c1.87,1.58,2.22,4,1.04,7.25c-0.45,1.22-1.2,2.46-2.26,3.72
			C275.91,316.97,274.6,318.07,273.04,319.01z M305.09,326.06l-2.24,6.18h-25.49l10.85-29.85h25.49l-2.24,6.18h-15.51l-2.05,5.64
			h13.37l-2.24,6.18h-13.43l-2.07,5.68H305.09z M338.26,322.97c-0.69,1.91-1.86,3.61-3.5,5.1c-1.64,1.49-3.61,2.66-5.91,3.51
			c-2.3,0.85-4.82,1.28-7.56,1.28c-1.83,0-3.51-0.06-5.03-0.18c-1.53-0.12-2.91-0.32-4.14-0.6c-1.23-0.28-2.36-0.66-3.39-1.14
			l2.77-7.61c1.4,1.16,3.08,2.02,5.04,2.57c1.95,0.55,3.81,0.83,5.56,0.83c1.39,0,2.58-0.21,3.57-0.63
			c0.99-0.42,1.67-1.13,2.04-2.15c0.25-0.69,0.04-1.24-0.62-1.68c-0.66-0.43-1.62-0.82-2.87-1.16c-1.25-0.34-2.64-0.75-4.18-1.23
			c-0.91-0.3-1.78-0.66-2.6-1.07c-0.82-0.42-1.49-0.94-2.03-1.57c-0.54-0.63-0.88-1.4-1.02-2.33c-0.14-0.92,0.03-2.04,0.51-3.36
			c0.48-1.31,1.23-2.57,2.27-3.76c1.04-1.19,2.33-2.25,3.87-3.18c1.54-0.92,3.34-1.65,5.39-2.17c2.05-0.52,4.32-0.78,6.81-0.78
			c1.5,0,2.82,0.07,3.98,0.2c1.16,0.13,2.22,0.35,3.19,0.65c0.97,0.3,1.92,0.67,2.85,1.12l-2.8,7.7c-0.6-0.57-1.34-1.1-2.24-1.61
			c-0.89-0.51-1.86-0.94-2.9-1.3c-1.04-0.36-2.13-0.57-3.28-0.63c-0.98-0.03-1.92,0.04-2.84,0.2c-0.92,0.16-1.72,0.46-2.4,0.87
			c-0.68,0.42-1.15,0.98-1.41,1.7c-0.27,0.75-0.18,1.34,0.26,1.77c0.45,0.43,1.16,0.79,2.13,1.07c0.97,0.28,2.07,0.57,3.27,0.87
			c1.41,0.36,2.66,0.76,3.76,1.21c1.1,0.45,1.98,1,2.66,1.66c0.67,0.66,1.1,1.45,1.27,2.39
			C338.91,320.49,338.75,321.63,338.26,322.97z M371.76,311.33c-0.6-0.57-1.34-1.1-2.24-1.61c-0.89-0.51-1.86-0.94-2.9-1.3
			c-1.04-0.36-2.13-0.57-3.28-0.63c-0.98-0.03-1.92,0.04-2.84,0.2c-0.92,0.16-1.72,0.46-2.4,0.87c-0.68,0.42-1.15,0.98-1.41,1.7
			c-0.27,0.75-0.18,1.34,0.26,1.77c0.45,0.43,1.16,0.79,2.13,1.07c0.97,0.28,2.07,0.57,3.27,0.87c1.41,0.36,2.66,0.76,3.76,1.21
			c1.1,0.45,1.98,1,2.66,1.66c0.67,0.66,1.1,1.45,1.27,2.39c0.17,0.94,0.01,2.08-0.48,3.42c-0.69,1.91-1.86,3.61-3.5,5.1
			c-1.64,1.49-3.61,2.66-5.91,3.51c-2.3,0.85-4.82,1.28-7.56,1.28c-1.83,0-3.51-0.06-5.03-0.18c-1.53-0.12-2.91-0.32-4.14-0.6
			c-1.23-0.28-2.36-0.66-3.39-1.14l2.77-7.61c1.4,1.16,3.08,2.02,5.04,2.57c1.95,0.55,3.81,0.83,5.56,0.83
			c1.39,0,2.58-0.21,3.57-0.63c0.99-0.42,1.67-1.13,2.04-2.15c0.25-0.69,0.04-1.24-0.62-1.68c-0.66-0.43-1.62-0.82-2.87-1.16
			c-1.25-0.34-2.64-0.75-4.18-1.23c-0.91-0.3-1.78-0.66-2.6-1.07c-0.82-0.42-1.49-0.94-2.03-1.57c-0.54-0.63-0.88-1.4-1.02-2.33
			c-0.14-0.92,0.03-2.04,0.51-3.36c0.48-1.31,1.23-2.57,2.27-3.76c1.04-1.19,2.33-2.25,3.87-3.18c1.54-0.92,3.34-1.65,5.39-2.17
			c2.05-0.52,4.32-0.78,6.81-0.78c1.5,0,2.82,0.07,3.98,0.2c1.16,0.13,2.22,0.35,3.19,0.65c0.97,0.3,1.92,0.67,2.86,1.12
			L371.76,311.33z"/>
	</g>
	<g>
		<polygon class="st1" points="150.12,285.89 161.4,285.89 140.39,236.51 130.44,236.51 109.43,285.89 116.42,285.89 120.43,285.89 
			143.31,285.89 139.24,275.91 124.49,275.91 135.27,249.47 		"/>
		<polygon class="st1" points="260.85,285.89 272.13,285.89 251.12,236.51 241.17,236.51 220.16,285.89 227.15,285.89 
			231.16,285.89 254.04,285.89 249.98,275.91 235.23,275.91 246.01,249.47 		"/>
		<polygon class="st1" points="376.97,285.89 388.24,285.89 367.23,236.51 357.29,236.51 336.28,285.89 343.27,285.89 
			347.27,285.89 370.16,285.89 366.09,275.91 351.34,275.91 362.12,249.47 		"/>
		<polygon class="st1" points="317.09,236.86 304.2,257.59 291.32,236.86 279.69,236.86 279.69,285.89 290.34,285.89 290.34,254.09 
			301.12,270.46 307.15,270.46 318.07,253.88 318.07,285.89 328.71,285.89 328.71,236.86 		"/>
		<path class="st1" d="M426.2,268.38c3.13-1.17,5.66-3,7.6-5.5c1.94-2.5,2.91-5.73,2.91-9.7v-0.14c0-5.09-1.62-9.06-4.87-11.91
			c-3.25-2.85-7.79-4.27-13.62-4.27h-29.13v9.73h28.22c2.66,0,4.74,0.58,6.23,1.75c1.49,1.17,2.24,2.92,2.24,5.25v0.14
			c0,2.1-0.71,3.78-2.14,5.04c-1.43,1.26-3.47,1.89-6.13,1.89h-11.77v-7.71h-9.94v7.71v25.21h10.78V270.2h8.47l10.5,15.69h12.61
			L426.2,268.38z"/>
		<path class="st1" d="M200.78,268.38c3.13-1.17,5.66-3,7.6-5.5c1.94-2.5,2.91-5.73,2.91-9.7v-0.14c0-5.09-1.62-9.06-4.87-11.91
			c-3.25-2.85-7.79-4.27-13.62-4.27h-29.13v9.73h28.22c2.66,0,4.74,0.58,6.23,1.75c1.49,1.17,2.24,2.92,2.24,5.25v0.14
			c0,2.1-0.71,3.78-2.14,5.04c-1.43,1.26-3.47,1.89-6.13,1.89h-11.77v-7.71h-9.94v7.71v25.21h10.78V270.2h8.47l10.5,15.69h12.61
			L200.78,268.38z"/>
		<path class="st1" d="M77.82,236.85l4.64,11.07l11.94,0v20.52c0,2.85-0.58,4.91-1.75,6.2c-1.17,1.28-2.78,1.93-4.83,1.93
			c-1.73,0-3.3-0.43-4.73-1.3c-1.42-0.86-2.84-2.07-4.24-3.61l-6.79,7.56c1.68,2.01,3.82,3.74,6.41,5.18
			c2.59,1.45,5.8,2.17,9.63,2.17c2.57,0,4.93-0.36,7.07-1.09c2.15-0.72,3.98-1.82,5.5-3.29c1.52-1.47,2.7-3.3,3.54-5.5
			c0.84-2.19,1.26-4.79,1.26-7.77v-21.02v-0.56v-10.5H77.82z"/>
	</g>
	<g>
		<path class="st1" d="M340.78,124.95c0,47.3-38.35,85.66-85.66,85.66c-17.23,0-33.28-5.09-46.72-13.86l39.04-5.52
			c2.52,0.3,5.08,0.44,7.68,0.44c9.13,0,17.83-1.84,25.75-5.17c3.83-1.61,7.47-3.57,10.89-5.84c17.98-11.9,29.83-32.3,29.83-55.47
			c0-10.6-2.48-20.61-6.89-29.49l16.75-9.67C337.41,97.71,340.78,110.94,340.78,124.95z"/>
		<path class="st1" d="M306.27,56.23l-33.81,4.78c-5.52-1.49-11.34-2.29-17.34-2.29c-12.61,0-24.4,3.51-34.44,9.62
			c-1.57,0.95-3.1,1.96-4.58,3.04c-16.63,12.08-27.44,31.68-27.44,53.8c0,11.59,2.96,22.48,8.18,31.97l-16.52,9.54
			c-6.91-12.35-10.85-26.59-10.85-41.75c0-47.31,38.35-85.66,85.66-85.66C274.29,39.29,292,45.59,306.27,56.23z"/>
		<g>
			<g>
				<path class="st1" d="M296.19,109.12l-153.85,88.82l132.42-18.74l-23.85-15.58c-2.57-1.68-2.96-5.29-0.81-7.48L296.19,109.12z"/>
				<path class="st1" d="M214.05,144.49L367.9,55.67L235.48,74.41l23.85,15.58c2.57,1.68,2.96,5.29,0.81,7.48L214.05,144.49z"/>
			</g>
		</g>
	</g>
	<g>
		<path class="st1" d="M108.98,382.36h-2.83l-1.54-3.68h-7.2l-1.57,3.68H93.1l6.7-15.34h2.48L108.98,382.36z M101,370.22l-2.61,6.09
			h5.24L101,370.22z"/>
		<path class="st1" d="M111.01,382.36v-15.88h2.65v15.88H111.01z"/>
		<path class="st1" d="M128.04,378.75l2.35-7.88h2.63l-3.76,11.57h-2.35l-2.57-7.85l-2.59,7.85h-2.35l-3.72-11.57h2.7l2.31,7.88
			l2.55-7.92h2.24L128.04,378.75z"/>
		<path class="st1" d="M141.53,382.36v-1.41c-0.39,0.47-0.89,0.86-1.5,1.17c-0.61,0.32-1.35,0.48-2.22,0.48
			c-0.55,0-1.07-0.08-1.57-0.23c-0.49-0.15-0.92-0.38-1.29-0.67c-0.37-0.3-0.67-0.67-0.89-1.11c-0.22-0.44-0.34-0.95-0.34-1.53
			v-0.04c0-0.62,0.12-1.17,0.35-1.63s0.56-0.85,0.97-1.15c0.41-0.3,0.91-0.53,1.48-0.69c0.57-0.15,1.19-0.23,1.86-0.23
			c0.7,0,1.29,0.04,1.77,0.13c0.49,0.09,0.95,0.2,1.4,0.35v-0.28c0-0.8-0.24-1.41-0.73-1.83c-0.49-0.42-1.19-0.63-2.1-0.63
			c-0.65,0-1.23,0.07-1.74,0.2c-0.51,0.13-1.02,0.3-1.54,0.52l-0.72-2.11c0.64-0.29,1.29-0.52,1.96-0.7
			c0.67-0.17,1.47-0.26,2.42-0.26c1.71,0,2.98,0.42,3.81,1.27c0.83,0.85,1.24,2.04,1.24,3.58v6.81H141.53z M141.59,377.49
			c-0.33-0.13-0.73-0.24-1.18-0.33c-0.46-0.09-0.94-0.13-1.45-0.13c-0.83,0-1.47,0.16-1.94,0.48c-0.46,0.32-0.7,0.78-0.7,1.37v0.04
			c0,0.55,0.21,0.97,0.64,1.26c0.43,0.29,0.95,0.44,1.58,0.44c0.44,0,0.84-0.06,1.21-0.17c0.37-0.12,0.69-0.28,0.97-0.49
			c0.28-0.21,0.49-0.46,0.64-0.76c0.15-0.3,0.23-0.63,0.23-0.99V377.49z"/>
		<path class="st1" d="M152.54,382.69c-0.23,0.59-0.47,1.09-0.72,1.5c-0.25,0.41-0.52,0.74-0.83,0.99c-0.3,0.25-0.64,0.44-1,0.56
			c-0.36,0.12-0.78,0.17-1.24,0.17c-0.55,0-1.04-0.06-1.47-0.19c-0.43-0.12-0.85-0.3-1.25-0.52l0.89-1.97
			c0.25,0.13,0.5,0.24,0.75,0.32c0.25,0.08,0.52,0.12,0.79,0.12c0.38,0,0.69-0.09,0.94-0.28c0.25-0.19,0.48-0.54,0.7-1.04
			l-4.79-11.47h2.81l3.26,8.53l2.98-8.53h2.74L152.54,382.69z"/>
		<path class="st1" d="M166.37,380.56c-0.22,0.45-0.52,0.82-0.9,1.12c-0.38,0.3-0.84,0.52-1.36,0.67c-0.52,0.15-1.08,0.23-1.68,0.23
			c-0.83,0-1.66-0.15-2.51-0.44c-0.85-0.29-1.64-0.72-2.36-1.28l1.17-1.78c0.62,0.46,1.26,0.82,1.9,1.06
			c0.64,0.24,1.27,0.36,1.86,0.36c0.57,0,1-0.11,1.32-0.34c0.31-0.22,0.47-0.53,0.47-0.9v-0.04c0-0.22-0.07-0.41-0.21-0.57
			c-0.14-0.16-0.33-0.3-0.57-0.42c-0.24-0.12-0.52-0.23-0.83-0.33c-0.31-0.09-0.63-0.19-0.97-0.29c-0.42-0.13-0.85-0.28-1.27-0.44
			c-0.43-0.16-0.81-0.37-1.15-0.62c-0.34-0.25-0.62-0.57-0.84-0.94c-0.22-0.37-0.33-0.83-0.33-1.38v-0.04
			c0-0.54,0.11-1.02,0.32-1.46c0.21-0.44,0.5-0.81,0.87-1.11c0.37-0.3,0.81-0.54,1.31-0.7c0.5-0.16,1.03-0.24,1.6-0.24
			c0.72,0,1.46,0.12,2.2,0.35c0.74,0.23,1.41,0.55,2.02,0.96l-1.04,1.87c-0.55-0.33-1.11-0.6-1.68-0.79
			c-0.57-0.2-1.09-0.29-1.57-0.29c-0.51,0-0.9,0.11-1.19,0.33c-0.28,0.22-0.42,0.49-0.42,0.83v0.04c0,0.2,0.07,0.38,0.22,0.53
			c0.14,0.15,0.34,0.29,0.58,0.41c0.24,0.12,0.51,0.24,0.83,0.35c0.31,0.11,0.63,0.21,0.97,0.32c0.42,0.13,0.84,0.28,1.26,0.46
			c0.42,0.17,0.8,0.39,1.14,0.64c0.34,0.25,0.62,0.56,0.84,0.93c0.22,0.36,0.33,0.81,0.33,1.33v0.04
			C166.7,379.58,166.59,380.11,166.37,380.56z"/>
		<path class="st1" d="M186.24,371.2c0.63-0.37,1.38-0.56,2.25-0.56c1.26,0,2.25,0.38,2.96,1.14c0.71,0.76,1.07,1.85,1.07,3.25v7.33
			h-2.65v-6.51c0-0.91-0.2-1.61-0.61-2.08c-0.41-0.48-0.97-0.72-1.71-0.72c-0.72,0-1.31,0.24-1.76,0.73
			c-0.46,0.48-0.68,1.19-0.68,2.12v6.47h-2.65v-6.53c0-0.9-0.2-1.58-0.61-2.06s-0.97-0.72-1.71-0.72c-0.74,0-1.33,0.25-1.78,0.76
			c-0.45,0.51-0.67,1.21-0.67,2.11v6.45h-2.65v-11.49h2.65v1.76c0.19-0.26,0.39-0.51,0.61-0.75c0.22-0.23,0.47-0.45,0.75-0.64
			s0.6-0.34,0.96-0.45c0.35-0.11,0.75-0.16,1.18-0.16c0.83,0,1.53,0.19,2.1,0.56c0.57,0.37,1.01,0.87,1.32,1.48
			C185.06,372.06,185.61,371.57,186.24,371.2z"/>
		<path class="st1" d="M206.41,378.95c-0.31,0.73-0.74,1.36-1.28,1.9c-0.54,0.54-1.19,0.98-1.95,1.29
			c-0.75,0.32-1.57,0.48-2.46,0.48c-0.87,0-1.68-0.16-2.43-0.47c-0.75-0.31-1.39-0.74-1.94-1.28c-0.54-0.54-0.97-1.17-1.27-1.89
			c-0.3-0.72-0.46-1.49-0.46-2.32c0-0.83,0.16-1.61,0.47-2.34c0.31-0.73,0.74-1.37,1.28-1.91c0.54-0.54,1.19-0.98,1.94-1.29
			c0.75-0.32,1.56-0.48,2.45-0.48c0.89,0,1.7,0.16,2.45,0.47c0.75,0.31,1.39,0.74,1.94,1.28c0.54,0.54,0.97,1.18,1.27,1.9
			c0.3,0.73,0.46,1.5,0.46,2.33C206.88,377.45,206.72,378.22,206.41,378.95z M203.97,375.23c-0.17-0.45-0.41-0.84-0.72-1.18
			c-0.31-0.34-0.68-0.61-1.1-0.81c-0.43-0.2-0.9-0.29-1.42-0.29c-0.52,0-0.99,0.1-1.42,0.29c-0.43,0.2-0.79,0.46-1.09,0.79
			c-0.3,0.33-0.53,0.72-0.69,1.16c-0.16,0.44-0.24,0.92-0.24,1.42c0,0.51,0.09,0.99,0.26,1.45c0.17,0.46,0.41,0.85,0.72,1.19
			c0.31,0.33,0.68,0.6,1.1,0.79c0.43,0.2,0.89,0.29,1.39,0.29c0.53,0,1.01-0.1,1.44-0.29c0.43-0.2,0.79-0.46,1.09-0.79
			c0.3-0.33,0.53-0.72,0.69-1.16s0.24-0.92,0.24-1.42C204.23,376.16,204.14,375.68,203.97,375.23z"/>
		<path class="st1" d="M216.41,370.88h2.76l-4.7,11.57h-2.37l-4.72-11.57h2.83l3.09,8.44L216.41,370.88z"/>
		<path class="st1" d="M221.02,369.11v-2.5h2.85v2.5H221.02z M221.13,382.36v-11.49h2.65v11.49H221.13z"/>
		<path class="st1" d="M229.42,382.36h-2.65v-11.49h2.65v1.8c0.19-0.28,0.39-0.54,0.62-0.78c0.22-0.24,0.49-0.46,0.78-0.65
			c0.3-0.19,0.62-0.34,0.98-0.45c0.35-0.11,0.76-0.16,1.2-0.16c1.3,0,2.31,0.4,3.02,1.2c0.71,0.8,1.06,1.87,1.06,3.22v7.31h-2.65
			v-6.51c0-0.9-0.21-1.59-0.64-2.07c-0.42-0.49-1.02-0.73-1.8-0.73c-0.76,0-1.38,0.25-1.85,0.75c-0.48,0.5-0.71,1.2-0.71,2.09
			V382.36z"/>
		<path class="st1" d="M249.5,384.47c-1.07,0.94-2.6,1.41-4.57,1.41c-1.91,0-3.63-0.46-5.13-1.37l0.98-1.98
			c0.61,0.38,1.25,0.67,1.91,0.89c0.67,0.22,1.39,0.33,2.18,0.33c1.17,0,2.07-0.3,2.7-0.9c0.62-0.6,0.94-1.48,0.94-2.64v-0.9
			c-0.48,0.63-1.04,1.14-1.68,1.54c-0.64,0.4-1.43,0.59-2.37,0.59c-0.68,0-1.33-0.12-1.96-0.36c-0.62-0.24-1.18-0.59-1.66-1.06
			s-0.87-1.03-1.16-1.7c-0.29-0.67-0.44-1.43-0.44-2.28c0-0.86,0.15-1.62,0.44-2.28c0.29-0.67,0.68-1.23,1.16-1.7
			s1.04-0.82,1.68-1.07c0.63-0.25,1.28-0.37,1.95-0.37c0.97,0,1.77,0.19,2.4,0.58c0.63,0.39,1.17,0.85,1.62,1.39v-1.74h2.63v9.14
			C251.11,382.04,250.57,383.53,249.5,384.47z M248.24,374.75c-0.18-0.4-0.42-0.73-0.73-1c-0.3-0.27-0.66-0.49-1.08-0.64
			s-0.85-0.23-1.29-0.23c-0.46,0-0.89,0.08-1.28,0.23c-0.39,0.15-0.74,0.36-1.03,0.64c-0.3,0.27-0.53,0.61-0.7,0.99
			c-0.17,0.39-0.25,0.82-0.25,1.3c0,0.48,0.09,0.91,0.26,1.3c0.17,0.39,0.41,0.72,0.7,1.01c0.29,0.28,0.63,0.5,1.03,0.65
			c0.4,0.15,0.82,0.23,1.27,0.23c0.45,0,0.88-0.08,1.29-0.23c0.41-0.15,0.77-0.37,1.08-0.65c0.3-0.28,0.55-0.61,0.73-0.99
			c0.18-0.38,0.27-0.81,0.27-1.29S248.43,375.14,248.24,374.75z"/>
		<path class="st1" d="M260.09,369.11v-2.5h2.85v2.5H260.09z M260.2,382.36v-11.49h2.65v11.49H260.2z"/>
		<path class="st1" d="M268.49,382.36h-2.65v-11.49h2.65v1.8c0.19-0.28,0.39-0.54,0.62-0.78c0.22-0.24,0.49-0.46,0.78-0.65
			c0.3-0.19,0.62-0.34,0.98-0.45c0.35-0.11,0.76-0.16,1.2-0.16c1.3,0,2.31,0.4,3.02,1.2c0.71,0.8,1.06,1.87,1.06,3.22v7.31h-2.65
			v-6.51c0-0.9-0.21-1.59-0.64-2.07c-0.42-0.49-1.02-0.73-1.8-0.73c-0.76,0-1.38,0.25-1.85,0.75c-0.48,0.5-0.71,1.2-0.71,2.09
			V382.36z"/>
		<path class="st1" d="M292,382.36v-1.41c-0.39,0.47-0.89,0.86-1.5,1.17c-0.61,0.32-1.35,0.48-2.22,0.48
			c-0.55,0-1.07-0.08-1.57-0.23c-0.49-0.15-0.92-0.38-1.29-0.67c-0.37-0.3-0.67-0.67-0.89-1.11c-0.22-0.44-0.34-0.95-0.34-1.53
			v-0.04c0-0.62,0.12-1.17,0.35-1.63c0.23-0.46,0.56-0.85,0.97-1.15c0.41-0.3,0.91-0.53,1.48-0.69c0.57-0.15,1.19-0.23,1.86-0.23
			c0.7,0,1.29,0.04,1.77,0.13c0.49,0.09,0.95,0.2,1.4,0.35v-0.28c0-0.8-0.24-1.41-0.73-1.83c-0.49-0.42-1.19-0.63-2.1-0.63
			c-0.65,0-1.23,0.07-1.74,0.2c-0.51,0.13-1.02,0.3-1.54,0.52l-0.72-2.11c0.64-0.29,1.29-0.52,1.96-0.7
			c0.67-0.17,1.47-0.26,2.42-0.26c1.71,0,2.98,0.42,3.81,1.27c0.83,0.85,1.24,2.04,1.24,3.58v6.81H292z M292.07,377.49
			c-0.33-0.13-0.73-0.24-1.18-0.33c-0.46-0.09-0.94-0.13-1.45-0.13c-0.83,0-1.47,0.16-1.94,0.48c-0.46,0.32-0.7,0.78-0.7,1.37v0.04
			c0,0.55,0.21,0.97,0.64,1.26c0.43,0.29,0.95,0.44,1.58,0.44c0.44,0,0.84-0.06,1.21-0.17c0.37-0.12,0.69-0.28,0.97-0.49
			c0.28-0.21,0.49-0.46,0.64-0.76c0.15-0.3,0.23-0.63,0.23-0.99V377.49z"/>
		<path class="st1" d="M297.46,382.36v-15.88h2.65v15.88H297.46z"/>
		<path class="st1" d="M303.25,382.36v-15.88h2.65v15.88H303.25z"/>
		<path class="st1" d="M323.61,382.36v-1.91c-0.42,0.6-0.94,1.1-1.57,1.52c-0.63,0.42-1.41,0.63-2.33,0.63
			c-0.68,0-1.34-0.13-1.97-0.39c-0.64-0.26-1.2-0.65-1.69-1.16c-0.49-0.51-0.89-1.14-1.19-1.88c-0.3-0.74-0.46-1.59-0.46-2.55
			c0-0.96,0.15-1.81,0.45-2.55c0.3-0.74,0.69-1.37,1.18-1.88c0.49-0.51,1.06-0.9,1.7-1.16c0.64-0.26,1.31-0.39,1.99-0.39
			c0.94,0,1.72,0.2,2.34,0.61c0.62,0.41,1.14,0.88,1.56,1.41v-6.18h2.65v15.88H323.61z M323.38,375.1
			c-0.18-0.45-0.42-0.84-0.73-1.16c-0.3-0.33-0.66-0.58-1.06-0.75c-0.4-0.17-0.82-0.26-1.26-0.26c-0.45,0-0.87,0.08-1.27,0.25
			c-0.4,0.17-0.75,0.41-1.05,0.73c-0.3,0.32-0.54,0.71-0.72,1.16c-0.17,0.46-0.26,0.98-0.26,1.55c0,0.57,0.09,1.08,0.26,1.53
			s0.41,0.85,0.72,1.16c0.3,0.32,0.65,0.57,1.05,0.74c0.4,0.17,0.82,0.26,1.27,0.26c0.43,0,0.85-0.09,1.26-0.26
			c0.4-0.17,0.76-0.42,1.06-0.75c0.3-0.33,0.55-0.71,0.73-1.16c0.18-0.45,0.27-0.96,0.27-1.52
			C323.66,376.05,323.57,375.55,323.38,375.1z"/>
		<path class="st1" d="M329.16,369.11v-2.5h2.85v2.5H329.16z M329.27,382.36v-11.49h2.65v11.49H329.27z"/>
		<path class="st1" d="M337.56,382.36h-2.65v-11.49h2.65v2.59c0.36-0.87,0.88-1.57,1.54-2.09c0.67-0.52,1.51-0.76,2.52-0.72v2.79
			h-0.15c-0.58,0-1.11,0.09-1.59,0.28c-0.48,0.19-0.89,0.47-1.24,0.85c-0.35,0.38-0.62,0.85-0.81,1.43
			c-0.19,0.57-0.28,1.24-0.28,1.99V382.36z"/>
		<path class="st1" d="M346.19,379.72c0.59,0.5,1.32,0.75,2.18,0.75c0.65,0,1.22-0.12,1.7-0.35c0.48-0.23,0.95-0.57,1.41-1.02
			l1.54,1.37c-0.55,0.65-1.21,1.17-1.97,1.57c-0.76,0.39-1.67,0.59-2.73,0.59c-0.83,0-1.6-0.14-2.32-0.44
			c-0.72-0.29-1.34-0.7-1.87-1.22c-0.53-0.52-0.95-1.15-1.25-1.88c-0.3-0.73-0.46-1.55-0.46-2.45c0-0.83,0.14-1.6,0.41-2.33
			c0.28-0.72,0.66-1.36,1.16-1.9c0.5-0.54,1.09-0.98,1.77-1.29c0.68-0.32,1.44-0.48,2.26-0.48c0.91,0,1.71,0.17,2.4,0.5
			c0.69,0.33,1.26,0.78,1.72,1.35c0.46,0.57,0.8,1.23,1.03,1.98c0.23,0.75,0.35,1.54,0.35,2.37c0,0.12,0,0.23-0.01,0.35
			c-0.01,0.12-0.02,0.24-0.03,0.37h-8.44C345.22,378.5,345.6,379.22,346.19,379.72z M350.94,375.81c-0.04-0.42-0.14-0.82-0.28-1.18
			c-0.15-0.37-0.34-0.69-0.59-0.96c-0.25-0.27-0.54-0.48-0.88-0.64c-0.34-0.16-0.73-0.24-1.16-0.24c-0.81,0-1.48,0.28-2.01,0.84
			c-0.53,0.56-0.85,1.29-0.97,2.19H350.94z"/>
		<path class="st1" d="M363.86,382.03c-0.73,0.4-1.65,0.6-2.76,0.6c-0.86,0-1.65-0.16-2.37-0.47c-0.73-0.31-1.36-0.74-1.89-1.28
			c-0.53-0.54-0.95-1.17-1.25-1.89c-0.3-0.72-0.45-1.49-0.45-2.32c0-0.83,0.15-1.6,0.45-2.33c0.3-0.73,0.72-1.36,1.25-1.91
			c0.53-0.55,1.17-0.99,1.9-1.31c0.73-0.32,1.53-0.48,2.38-0.48c1.09,0,1.99,0.18,2.71,0.54c0.72,0.36,1.35,0.84,1.88,1.44
			l-1.63,1.76c-0.41-0.42-0.84-0.76-1.3-1.03c-0.46-0.27-1.02-0.4-1.69-0.4c-0.48,0-0.92,0.1-1.33,0.29
			c-0.41,0.2-0.75,0.46-1.04,0.79c-0.29,0.33-0.52,0.72-0.68,1.16c-0.17,0.44-0.25,0.92-0.25,1.42c0,0.52,0.08,1.01,0.25,1.46
			c0.17,0.45,0.4,0.84,0.71,1.17c0.3,0.33,0.67,0.6,1.09,0.79c0.42,0.2,0.88,0.29,1.39,0.29c0.62,0,1.17-0.13,1.64-0.4
			c0.47-0.27,0.92-0.61,1.34-1.03l1.59,1.57C365.23,381.11,364.58,381.63,363.86,382.03z"/>
		<path class="st1" d="M370.95,378.77c0,0.51,0.12,0.88,0.37,1.1c0.25,0.23,0.59,0.34,1.04,0.34c0.57,0,1.11-0.13,1.63-0.39v2.15
			c-0.33,0.19-0.69,0.33-1.07,0.44c-0.38,0.1-0.81,0.15-1.31,0.15c-0.48,0-0.92-0.06-1.33-0.17c-0.41-0.12-0.76-0.3-1.06-0.57
			c-0.3-0.26-0.53-0.61-0.69-1.04c-0.16-0.43-0.24-0.96-0.24-1.6v-6.06h-1.46v-2.24h1.46v-3.15h2.65v3.15h3.09v2.24h-3.09V378.77z"
			/>
		<path class="st1" d="M376.28,369.11v-2.5h2.85v2.5H376.28z M376.39,382.36v-11.49h2.65v11.49H376.39z"/>
		<path class="st1" d="M393.17,378.95c-0.31,0.73-0.74,1.36-1.28,1.9c-0.54,0.54-1.19,0.98-1.95,1.29
			c-0.75,0.32-1.57,0.48-2.46,0.48c-0.87,0-1.68-0.16-2.43-0.47c-0.75-0.31-1.39-0.74-1.94-1.28c-0.54-0.54-0.97-1.17-1.27-1.89
			c-0.3-0.72-0.46-1.49-0.46-2.32c0-0.83,0.16-1.61,0.47-2.34c0.31-0.73,0.74-1.37,1.28-1.91c0.54-0.54,1.19-0.98,1.94-1.29
			c0.75-0.32,1.56-0.48,2.45-0.48c0.89,0,1.7,0.16,2.45,0.47c0.75,0.31,1.39,0.74,1.94,1.28c0.54,0.54,0.97,1.18,1.27,1.9
			c0.3,0.73,0.46,1.5,0.46,2.33C393.64,377.45,393.48,378.22,393.17,378.95z M390.73,375.23c-0.17-0.45-0.41-0.84-0.72-1.18
			c-0.31-0.34-0.68-0.61-1.1-0.81c-0.43-0.2-0.9-0.29-1.42-0.29c-0.52,0-0.99,0.1-1.42,0.29c-0.43,0.2-0.79,0.46-1.09,0.79
			c-0.3,0.33-0.53,0.72-0.69,1.16c-0.16,0.44-0.24,0.92-0.24,1.42c0,0.51,0.09,0.99,0.26,1.45c0.17,0.46,0.41,0.85,0.72,1.19
			c0.31,0.33,0.68,0.6,1.1,0.79s0.89,0.29,1.39,0.29c0.53,0,1.01-0.1,1.44-0.29c0.43-0.2,0.79-0.46,1.09-0.79
			c0.3-0.33,0.53-0.72,0.69-1.16c0.16-0.44,0.24-0.92,0.24-1.42C390.99,376.16,390.9,375.68,390.73,375.23z"/>
		<path class="st1" d="M398.53,382.36h-2.65v-11.49h2.65v1.8c0.19-0.28,0.39-0.54,0.62-0.78c0.22-0.24,0.49-0.46,0.78-0.65
			c0.3-0.19,0.62-0.34,0.98-0.45c0.35-0.11,0.76-0.16,1.2-0.16c1.3,0,2.31,0.4,3.02,1.2c0.71,0.8,1.06,1.87,1.06,3.22v7.31h-2.65
			v-6.51c0-0.9-0.21-1.59-0.64-2.07c-0.42-0.49-1.02-0.73-1.8-0.73c-0.76,0-1.38,0.25-1.85,0.75c-0.48,0.5-0.71,1.2-0.71,2.09
			V382.36z"/>
		<path class="st1" d="M416.81,380.56c-0.22,0.45-0.52,0.82-0.9,1.12c-0.38,0.3-0.84,0.52-1.36,0.67c-0.52,0.15-1.08,0.23-1.68,0.23
			c-0.83,0-1.66-0.15-2.51-0.44c-0.85-0.29-1.64-0.72-2.36-1.28l1.17-1.78c0.62,0.46,1.26,0.82,1.9,1.06
			c0.64,0.24,1.27,0.36,1.86,0.36c0.57,0,1-0.11,1.32-0.34c0.31-0.22,0.47-0.53,0.47-0.9v-0.04c0-0.22-0.07-0.41-0.21-0.57
			c-0.14-0.16-0.33-0.3-0.57-0.42c-0.24-0.12-0.52-0.23-0.83-0.33c-0.31-0.09-0.63-0.19-0.97-0.29c-0.42-0.13-0.85-0.28-1.27-0.44
			c-0.43-0.16-0.81-0.37-1.15-0.62c-0.34-0.25-0.62-0.57-0.84-0.94c-0.22-0.37-0.33-0.83-0.33-1.38v-0.04
			c0-0.54,0.11-1.02,0.32-1.46c0.21-0.44,0.5-0.81,0.87-1.11c0.37-0.3,0.81-0.54,1.31-0.7c0.5-0.16,1.03-0.24,1.6-0.24
			c0.72,0,1.46,0.12,2.2,0.35c0.74,0.23,1.41,0.55,2.02,0.96l-1.04,1.87c-0.55-0.33-1.11-0.6-1.68-0.79
			c-0.57-0.2-1.09-0.29-1.57-0.29c-0.51,0-0.9,0.11-1.19,0.33c-0.28,0.22-0.42,0.49-0.42,0.83v0.04c0,0.2,0.07,0.38,0.22,0.53
			c0.14,0.15,0.34,0.29,0.58,0.41c0.24,0.12,0.51,0.24,0.83,0.35c0.31,0.11,0.63,0.21,0.97,0.32c0.42,0.13,0.84,0.28,1.26,0.46
			c0.42,0.17,0.8,0.39,1.14,0.64c0.34,0.25,0.62,0.56,0.84,0.93c0.22,0.36,0.33,0.81,0.33,1.33v0.04
			C417.13,379.58,417.03,380.11,416.81,380.56z"/>
	</g>
</g>
</svg>
